<svg width="114" height="113" viewBox="0 0 114 113" fill="none" xmlns="http://www.w3.org/2000/svg">
<path d="M55.6205 49.6667C54.8815 49.8843 53.8994 49.6801 53.1444 49.3928C52.9065 49.3038 53.0159 48.8769 52.8521 48.7964C52.531 48.6397 52.2425 48.8557 51.9233 48.6687C51.8177 48.6047 51.9266 47.9294 51.8163 47.8776C51.2097 47.5989 50.6502 47.7892 50.0426 47.6699C48.8333 47.4319 47.6292 47.2784 46.4695 47.187C45.8915 47.1414 45.3172 47.1121 44.7954 47.0986C44.5458 47.0906 44.2848 47.0902 44.1104 47.0858C44.0223 47.0834 43.9504 47.0822 43.9607 47.0641C43.9723 47.0529 43.9919 47.0426 44.109 46.9977C44.1711 46.9736 44.2561 46.9407 44.3797 46.885C44.5416 46.8103 44.7863 46.7034 45.171 46.4302C45.456 46.1448 45.3773 46.0484 45.2525 46.1643C45.024 46.3239 44.1277 47.0236 44.2244 47.9051C44.2358 48.0054 44.8249 48.0692 44.8688 48.0967C45.5441 48.5103 44.3948 48.1885 44.2034 48.3516C43.4487 48.9992 43.282 49.9597 43.4494 50.7939C43.5224 51.1515 44.7151 50.8818 44.0358 51.1868C43.9899 51.2086 43.3708 51.079 43.298 51.1714C43.1338 51.3787 43.2242 51.8087 43.1682 51.9785C43.0566 52.306 43.0613 52.3626 43.0461 52.6813C43.0206 53.1111 42.7053 53.6338 42.8513 54.106C42.8843 54.2064 43.5249 54.0683 43.6356 54.226C43.7459 54.3831 43.6992 54.8018 43.552 54.9483C43.4044 55.0945 42.8986 55.0478 42.7837 55.0763C41.8132 55.3168 43.1828 55.7706 43.2192 55.8284C43.8375 56.9504 43.1416 57.9844 43.2527 59.0757C43.3389 59.9014 43.7004 60.744 43.7812 61.5111C43.8756 62.4256 43.6712 63.2544 43.9188 64.0889C43.9446 64.1779 44.6569 63.9069 44.6894 64.012C44.7316 64.1479 44.7713 64.279 44.808 64.4053C45.0449 65.1917 45.1763 65.8322 45.1727 66.6477C45.1744 66.7444 44.5611 67.0182 44.5346 67.1434C44.3074 67.8547 44.3019 69.6969 46.3662 67.6264C46.5463 67.9178 46.8265 68.2432 46.8681 68.9302C46.9012 69.3747 46.3457 69.8965 46.7748 69.7742C46.8705 69.7461 47.0771 69.1419 47.1943 69.1397C47.6789 69.1264 48.0549 69.5116 48.6203 69.3795C48.7349 69.3509 48.9126 68.8123 48.9739 68.7266C49.4685 68.032 49.3656 69.4459 49.4233 69.5712C49.8249 70.4978 50.4324 70.3896 51.1139 70.6512C51.2733 70.713 51.3385 69.9281 51.5037 69.9631C51.5171 69.9661 51.5305 69.9692 51.544 69.9723C52.13 70.0762 52.6706 70.2953 53.1898 70.7327C53.308 70.8332 53.0662 71.4472 53.1192 71.5282C53.3696 71.8782 53.6261 70.679 53.8558 70.9773C53.9067 71.0386 53.8033 71.5846 53.8062 71.6464C53.8675 72.6187 54.1796 71.2883 54.2197 71.2622C54.7897 70.9062 55.0857 72.3352 55.6825 72.1346C55.7501 72.1087 55.5953 71.4081 55.7806 71.3778C57.0085 71.1699 58.3273 71.1875 59.7558 71.4459C59.9775 71.485 59.9485 72.0317 59.9749 72.0925C60.4156 73.0346 60.2498 71.6747 60.3013 71.6096C60.7302 71.1275 61.5375 72.0885 61.4443 70.4276C62.8716 70.3695 64.1543 69.6981 65.5462 69.2872C66.1928 69.1136 66.7714 69.017 67.6945 68.936C67.7239 68.9314 68.1503 69.4506 68.2097 69.4367C68.9351 69.2471 68.1127 68.58 67.3414 67.5191C67.1344 67.269 68.5296 67.9713 68.6467 67.9996C69.0463 68.1547 69.7946 68.8231 69.8816 68.8397C70.5962 68.9192 67.8371 67.1144 68.014 66.8315C68.0249 66.8243 68.5153 67.1854 68.5832 67.1904C68.7968 67.2053 68.6406 66.9967 68.8711 67.0162C69.3989 67.0687 70.8591 67.7445 70.2172 66.9606C70.1315 66.8616 68.4417 66.0625 68.6751 65.793C68.7716 65.6871 69.012 65.0954 69.1959 64.973C69.3806 64.8535 69.8823 65.2103 69.9113 65.2093C70.8479 65.0524 71.073 65.3628 72.2671 65.5683C73.4594 65.7628 70.8374 64.7647 70.5882 64.5476C70.3402 64.3307 71.0929 64.2208 71.3417 64.2122C71.5901 64.2058 71.9018 64.4595 72.0542 64.4259C73.0508 64.1997 70.8484 63.6873 70.5008 63.3532C69.6725 62.5728 71.7369 62.9916 72.0718 62.6777C72.1617 62.5942 71.6866 62.5125 71.6793 62.4054C71.6572 61.9803 72.3466 61.9868 71.942 61.3651C71.8762 61.2634 70.8281 60.4923 71.7696 60.5917C71.9052 60.6064 72.3585 60.8747 72.5256 60.7575C72.557 60.7355 72.5886 60.7102 72.6198 60.6821C72.833 60.4999 73.0118 60.1854 72.9328 59.9284C72.8647 59.7151 71.9879 59.6623 72.3063 59.5264C72.4486 59.4629 72.8732 59.7889 73.1021 59.6518C73.3325 59.5156 73.4377 59.0204 73.4602 58.8305C73.4842 58.64 72.8283 58.6059 72.7892 58.581C72.5653 58.4398 72.3215 58.0551 72.3259 58.0284C72.4991 56.6406 73.5625 55.1933 72.8776 53.7383C72.8251 53.629 72.1759 53.856 72.1611 53.8408C71.7949 53.533 73.6348 53.4175 74.1504 52.9721C72.8176 53.3566 73.0206 53.127 72.7936 52.8884C72.6829 52.7748 72.1897 53.0005 72.1333 53.0035C71.2976 53.052 72.2618 52.6137 72.4538 52.5074C73.1637 52.1279 72.2271 52.2824 72.6962 52.0204C73.1586 51.7518 73.9722 51.7126 73.8594 51.4275C73.3654 51.5209 72.2181 52.1595 71.9487 52.0344C70.957 51.6002 71.2547 49.8492 71.0189 49.1804C70.9275 48.9071 70.8399 48.7228 70.7673 48.5672C70.6866 48.3902 70.6254 48.2616 70.6042 48.0378C70.5153 47.3301 69.8545 48.0733 69.296 48.069C68.7355 48.0795 70.6494 46.6827 71.0021 46.3106C71.3461 45.93 70.9019 46.2166 71.0577 45.9708C71.2109 45.7223 71.5937 45.6319 71.5361 45.4097C71.4716 45.1762 70.4362 45.4107 70.0231 45.7541C69.1376 46.4658 68.4632 47.4551 68.4424 46.8631C68.4405 46.8277 68.926 46.4292 68.8962 46.3157C68.636 45.4211 67.9643 44.8555 67.5142 44.0233C67.4518 43.9074 67.9349 43.4003 67.9018 43.3256C67.5462 42.5442 67.0999 43.6555 66.0748 44.5325C67.0908 43.1357 67.4855 42.1272 67.0036 41.815C66.7167 41.6299 66.3722 42.3035 65.9158 42.6484C65.7794 42.753 65.8429 42.1886 65.6261 42.4726C64.9202 43.4023 64.4484 44.6269 64.2432 43.9121C64.2346 43.8789 64.6164 43.3666 64.5632 43.2919C64.2181 42.8067 63.5707 43.8336 63.0006 43.6917C62.6164 43.5964 62.288 42.8246 61.9342 42.39C61.8882 42.3248 61.8398 42.2683 61.7895 42.2254C62.6552 40.4861 61.9754 40.6613 61.3014 41.8338C61.0381 41.6649 60.6984 41.6201 60.4695 41.3491C60.3891 41.256 60.6308 40.7443 60.6373 40.6825C60.7235 39.7083 60.1887 40.9065 60.1121 40.9367C59.2641 41.2005 58.8668 40.097 57.9553 40.9044C57.9216 40.9335 57.6406 42.2515 57.6288 41.2498C57.6266 41.1806 57.975 40.6192 57.6414 40.5124C57.3142 40.406 56.7487 39.5913 56.1819 40.1547C56.0431 40.2895 55.6382 41.345 55.4889 40.4717C55.4685 40.3531 55.5411 39.9717 55.5155 39.7531C55.4277 39.0561 55.224 40.4054 55.1461 39.2371C55.0689 38.069 54.7289 37.1713 54.1568 37.9382C54.1381 37.9604 53.9556 39.0314 53.7981 39.0063C53.5445 38.9651 53.1907 38.7256 52.921 38.7247C52.7924 38.7246 52.8552 39.3973 52.8326 39.4089C51.9749 39.7616 51.3826 39.1607 50.4527 38.9164C50.2795 38.8702 49.8241 39.7957 49.4764 39.0852C49.0883 38.3085 49.3355 35.0015 48.5013 35.8248C48.1521 36.1563 47.9883 40.347 47.2453 38.2305C46.1859 38.8147 45.0551 37.9544 44.0184 38.6293C43.9332 38.6709 43.8554 38.7236 43.7888 38.7838C43.7036 38.8408 43.9447 39.9911 43.8818 40.0045C43.7538 40.0339 43.4111 39.6011 43.2805 39.6356C42.7224 39.7788 42.6127 40.4619 42.1715 40.7322C42.0033 40.8385 41.694 40.3623 41.4887 40.496C41.2845 40.6305 41.6538 41.2925 41.1751 41.2385C40.8119 41.1961 39.6133 40.2351 39.2499 40.326C40.2447 41.4426 40.0579 41.5704 40.0302 42.1293C40.0256 42.237 40.436 42.5673 40.4519 42.6381C40.5239 42.9352 40.1329 42.7077 40.2255 43.0179C40.2473 43.0928 40.5892 43.4723 40.6262 43.5549C40.9554 44.2719 39.8917 43.6838 39.7092 43.5786C39.5986 43.5164 39.5143 43.4784 39.4494 43.4581L39.5419 43.3527C39.1866 43.3232 39.4933 43.6437 39.2008 43.6419C38.8472 43.6538 38.6722 43.2114 38.3963 43.3255C37.8134 43.5778 37.6065 44.2849 37.4674 44.8065C37.4128 45.0176 38.1118 45.0189 38.1193 45.0529C38.2044 45.4539 37.4454 45.8175 38.787 46.1189C36.4334 46.1522 37.3716 46.2836 38.0384 46.478C38.3658 46.5883 38.6236 46.742 38.3722 46.9153C38.3104 46.9603 36.6554 46.8273 36.4269 46.6597C36.3064 46.571 36.3972 46.4829 36.4562 46.3764L36.4539 46.4244C36.5047 46.3058 36.5316 46.1786 36.3596 46.0387C36.2714 45.9858 34.7541 45.4436 34.6717 45.3488C34.0034 44.7207 36.4786 45.0321 36.6122 45.0459C38.0938 45.078 36.5708 44.2828 36.5182 44.0699C36.2152 43.2699 36.7882 42.8844 36.7234 42.2466C36.688 41.8275 35.3474 40.9104 35.5663 40.6726C35.5734 40.665 35.5807 40.6575 35.5881 40.6503C35.7249 40.4926 36.0867 40.0082 36.2574 39.8878C36.8637 39.6171 38.5212 41.0875 37.6808 39.2208C37.5014 38.8174 36.2025 37.5971 37.5152 38.2923C37.5982 38.3358 38.7333 39.0321 38.3611 38.2811C38.3143 38.1863 37.9689 37.8006 37.9681 37.7431C37.9706 37.3643 38.3723 37.5595 38.4619 37.2206C38.552 36.8815 38.6459 36.4155 39.0556 36.3123C39.3016 36.249 40.1369 36.8248 40.3641 36.9511C41.0097 37.3173 40.699 36.1807 41.3536 36.7451C41.9666 37.3424 42.3101 38.5975 42.9791 38.8284C42.3438 37.6428 41.7329 36.4035 41.149 35.1823C41.6658 34.9407 42.2977 34.6482 43.5127 34.5355C44.1741 34.5955 44.8299 34.7316 45.4678 34.6298C45.5813 34.6105 45.3979 33.9013 45.518 33.8621C46.0199 33.701 46.5195 34.1776 47.0324 33.936C47.4358 33.7458 47.8461 32.954 48.2792 32.7392C48.6267 34.2622 49.2396 33.7128 49.7185 33.8405C49.886 33.8844 49.8849 34.2957 50.004 34.4269C50.4518 34.9129 50.2195 33.5579 50.3375 33.3414C50.854 32.4196 50.9354 35.4966 51.5283 35.4203C51.5568 35.417 51.9639 33.7784 52.0227 33.6772C52.3838 33.0153 52.0741 34.2488 52.2908 34.3732C52.6885 34.6015 52.9466 34.9996 53.433 34.5367C53.5722 34.3993 53.9559 33.392 54.186 34.1968C54.2159 34.3021 54.1671 34.8427 54.1935 34.8759C54.6693 35.4332 54.789 33.7347 55.1363 33.1805C55.4867 32.6268 55.8646 33.8411 55.9229 34.1876C56.0853 35.0839 55.7012 34.5433 55.6799 34.6283C55.4371 35.6354 55.7807 35.4878 56.0218 35.5991C55.8931 37.2652 56.2367 37.2006 56.2724 35.7084C56.2751 35.5451 56.0638 35.6799 56.0218 35.5991C56.4 33.989 56.8531 33.8258 57.0934 35.4015C57.2024 36.1406 56.9028 36.942 57.5367 36.7232C57.8266 36.6268 57.895 35.4733 58.1935 35.203C58.8911 34.589 59.4508 35.7883 60.0749 35.7611C60.3062 35.7521 60.2373 35.089 60.4034 35.0628C60.8525 34.9945 61.0884 35.5447 61.5672 35.4319C61.6117 35.4212 61.7025 34.7608 61.8374 34.7917C62.8717 35.0215 63.6212 35.7364 64.6866 36.2598C64.7726 36.3023 64.8741 36.342 64.9861 36.3813C65.413 36.5088 66.0698 36.5761 66.3822 36.8121C67.0382 37.2989 67.4354 38.6223 68.1519 38.782C68.6216 38.8909 68.8797 38.2776 69.2888 38.0015C70.0908 37.471 69.8515 39.1767 69.7875 39.4261C69.7848 39.4333 69.3595 39.34 69.3549 39.7419C69.0706 40.399 69.7812 39.4256 69.7875 39.4261C69.754 39.5881 70.3461 40.1749 70.5535 40.1722C70.667 40.1688 70.9904 39.6319 71.0435 39.6404C72.2983 39.8557 73.3938 40.5286 74.1472 41.6881C74.1549 41.7136 73.6375 42.1845 73.6606 42.2372C73.965 42.9849 74.9198 42.7702 75.7744 43.0267C76.6234 43.2807 76.8711 43.9608 76.0743 44.9625C76.2218 45.1034 76.3138 45.3238 76.3593 45.5699C76.3711 45.8904 76.2483 46.2958 76.1561 46.5733C76.0131 46.9984 77.2467 46.4254 77.2839 46.4391C78.4592 46.8645 78.0017 47.7107 78.2759 48.6813C78.4069 49.1439 78.9356 49.9986 79.2441 50.5C79.4925 50.8934 79.2603 51.2424 79.5626 51.5978C79.6032 51.6468 80.1758 51.4409 80.2028 51.4523C81.0255 51.7578 79.5285 51.8767 79.2944 52.0325C78.4372 52.596 77.9775 52.8717 78.5222 53.3581C78.6454 53.4584 80.8172 53.5478 80.9763 53.8256C81.1764 54.1706 80.402 54.1161 80.6225 54.4681C80.6402 54.4986 81.1102 54.4487 81.1086 54.6874C81.1064 55.7938 80.8171 56.9844 80.7485 58.0823C80.7371 58.234 81.5021 58.116 81.4963 58.3433C81.4682 59.4118 81.2098 60.5541 80.6178 61.3932C80.4704 61.597 80.0046 61.3151 79.8414 61.3224C78.8576 61.3546 80.0437 62.1446 80.0441 62.2278C80.0685 62.6575 79.9947 63.0233 79.8628 63.3636C79.5504 64.1534 78.7009 64.667 78.7691 65.7656C78.7781 65.8405 79.9469 66.889 78.6798 66.6791C78.5946 66.6675 77.3089 66.4267 78.0421 66.962C78.0878 66.9957 78.7629 67.0895 78.596 67.3265C78.4309 67.5591 78.6612 68.1659 77.8304 68.2594C77.5674 68.2917 76.2773 68.0481 77.0466 68.827C77.1091 68.8655 78.9248 70.4453 77.3792 69.9706C77.1246 69.8917 75.634 69.1069 76.1805 69.9408C76.2839 70.106 76.7034 70.1153 76.7883 70.4615C76.9169 70.9974 76.2527 71.2664 76.5944 72.1419C76.6597 72.2908 77.3792 73.2984 76.4408 73.1274C76.296 73.0976 75.8927 72.6905 75.7331 72.8099C74.98 73.3643 74.6125 74.4129 73.5807 74.8705C73.2201 75.0256 72.7294 74.2376 72.3037 74.2951C71.8762 74.3562 71.1998 74.5967 71.1327 75.1472C71.0532 75.7072 72.2449 76.6577 71.7693 77.1102C70.9888 77.8351 70.0352 78.3043 69.1042 78.5747C68.173 78.787 67.132 78.7799 66.1576 79.0265C65.9271 79.0844 66.2804 79.5143 65.9473 79.6352C64.7513 80.0875 62.5238 81.2049 61.0698 80.3525C59.9428 79.6708 61.0073 78.7805 60.2291 78.5626C59.8677 78.4557 59.7636 80.1819 59.6778 80.2488C58.8902 80.9161 58.1785 80.2447 57.397 80.5334C57.2322 80.5928 57.4462 81.2636 57.302 81.3065C56.8044 81.4589 56.256 81.1738 55.7684 81.2328C55.5486 81.2605 55.5885 81.7829 55.3807 81.7414C54.8843 81.6464 54.4434 81.4098 53.9978 80.8892C53.9595 80.8418 54.2868 80.2127 53.9374 80.1645C53.3632 80.0861 52.7335 79.5308 52.0021 79.9155C51.786 80.0311 51.5626 81.2072 51.2802 80.3139C51.2202 80.1257 51.6229 78.7479 50.8832 79.857C50.7776 80.0487 49.4947 81.4618 49.3561 80.2959C49.3203 79.9909 49.3925 78.7887 49.1149 78.8929C49.0745 78.9107 49.0051 79.5624 48.793 79.5596C48.5615 79.5526 48.3335 79.5147 48.1069 79.4622C47.8233 79.425 47.5148 79.3299 47.1391 79.3477C46.9929 79.3557 46.9703 80.0494 46.7576 80.0408C46.172 80.0181 45.4421 79.5882 44.8466 79.1339C44.628 78.9654 44.9991 78.5198 45.0025 78.457C45.0783 77.4417 44.4198 78.5905 44.2867 78.6183C43.4835 78.7796 43.2332 77.9871 42.5482 77.8162C42.3567 77.765 42.1867 78.383 42.1263 78.4144C41.4996 78.6987 42.3049 77.8541 42.1371 77.6218C41.6742 76.9675 40.95 76.5726 40.2598 76.1569C40.0048 76.003 39.8367 76.7864 39.6059 76.6346C38.2228 75.7459 36.9491 74.2994 36.3788 72.7268C36.2711 72.4292 36.8448 72.28 36.9161 72.157C37.4399 71.3361 36.1054 71.4658 35.9302 71.3869C35.1506 71.0697 35.4816 70.6181 35.1697 70.1572C34.5563 69.2451 34.1334 68.1689 33.8845 67.117C33.5789 65.818 33.5219 64.5763 33.4794 63.5467C33.3932 61.3039 33.7586 59.6234 33.4857 57.5957C33.4695 57.4662 32.7352 57.644 32.7117 57.532C32.4434 56.0783 32.6911 54.627 32.4915 53.1255C32.4766 53.0013 31.7692 53.1731 31.7218 52.9715C31.6195 52.5594 31.6713 52.0276 31.913 51.6154C32.0296 51.4151 32.6233 51.7124 32.7284 51.5126C32.9751 51.0416 33.0533 50.5431 32.9781 50.0315C32.9447 49.8148 32.2008 50.0835 32.214 49.8028C32.3 47.896 32.4266 45.8244 34.0209 43.7441C34.1346 43.5933 35.5722 43.9024 35.416 43.4918C35.04 43.334 34.5876 43.178 34.1809 43.0236C34.7201 41.3635 35.4211 39.2003 38.4849 36.987C39.1015 36.5603 39.5339 36.3703 39.8849 36.2218C40.1439 36.1164 40.3531 36.0463 40.5415 35.9885C40.9253 35.8736 41.0963 35.8414 41.3266 35.7936C41.6999 35.7221 41.9837 35.6882 42.2327 35.6628C42.7206 35.6153 43.1215 35.5993 43.4929 35.5877C44.2414 35.5655 44.9115 35.5632 45.5737 35.5371C45.6808 35.5328 45.4411 34.7708 45.6499 34.7585C46.8343 34.6895 47.9398 34.4195 49.1332 35.1426C49.2508 35.2134 49.2475 36.5809 49.5749 36.3612C49.6332 36.321 50.1308 36.1199 50.2514 35.819C50.2677 35.7736 50.1523 35.1395 50.3153 35.1151C51.2615 34.9849 52.2602 35.1022 53.2101 35.4705C53.3638 35.5311 53.2166 36.2139 53.3266 36.263C54.0997 36.6063 54.9266 36.0755 55.6704 36.6837C56.1613 37.0935 56.0001 38.2696 56.2656 39.4229C56.3002 39.5856 56.6066 39.6092 56.625 40.2816C56.6744 41.9722 56.5436 43.8246 56.6137 45.6265C56.631 46.0145 57.0037 45.5945 56.7867 46.5337C56.7733 46.5965 56.4954 46.9096 56.4281 47.2285C56.3834 47.4488 56.4724 48.132 56.38 48.4144C56.2877 48.6966 56.1766 48.1243 56.0157 48.4569C55.8609 48.7936 55.9424 49.5706 55.6205 49.6667ZM75.4949 48.483C75.0236 49.0188 77.219 48.0661 76.5602 48.0061C76.5257 48.0044 75.5175 48.4557 75.4949 48.483ZM44.7521 36.5751C45.2103 37.5875 45.3094 36.0189 44.9674 35.234C44.6214 34.4508 44.6104 36.2687 44.7521 36.5751ZM40.7387 39.1921C41.595 39.5623 39.525 36.8724 39.5642 37.73C39.566 37.779 40.6879 39.1716 40.7387 39.1921ZM55.0752 39.7661C55.0798 39.7978 55.2957 39.8256 55.2999 39.7941C55.4044 39.0326 54.9716 38.9774 55.0752 39.7661ZM38.6117 42.2174C39.0115 42.4755 38.9237 41.8406 38.4257 41.5214C38.0266 41.2634 38.1156 41.8955 38.6117 42.2174ZM73.1697 63.0761C73.1348 63.0677 73.0518 63.198 73.2413 63.2667C73.8533 63.4836 73.7556 63.2215 73.1697 63.0761ZM36.8425 48.4417C37.1252 47.6362 39.982 47.4853 39.4979 48.4593C39.4101 48.6276 38.6856 47.917 38.3969 48.1013C37.8728 48.4253 39.5488 49.0273 38.5406 49.2643C38.3575 49.302 36.821 48.4852 36.839 48.4395C36.8401 48.4402 36.8413 48.4409 36.8425 48.4417ZM72.9562 49.8396C72.9299 49.8578 72.9903 50.0623 73.0208 50.0541C73.7621 49.8489 73.6355 49.4244 72.9562 49.8396ZM67.783 69.7261C67.7334 69.6838 67.373 69.8745 67.3954 69.9304C67.895 71.1062 68.7786 70.6129 67.783 69.7261ZM61.8055 42.1756C61.2956 42.7782 61.085 42.784 61.3019 41.8351C61.4687 41.9595 61.6475 42.0475 61.8055 42.1756Z" fill="#FFC405"/>
<path d="M49.7397 42.3632C49.5317 41.6773 49.7768 40.7987 50.1117 40.1598C50.2154 39.9614 50.6344 40.0833 50.7255 39.9476C50.9034 39.6782 50.7093 39.4182 50.9222 39.1565C50.9947 39.0724 51.6583 39.2234 51.719 39.1351C52.0472 38.6469 51.9123 38.1623 52.1007 37.6595C53.0356 35.2097 53.6426 32.8003 54.6939 30.2515C55.0453 29.401 55.9805 28.5617 56.1465 27.5474C56.1657 27.4275 55.6 27.2478 55.565 27.2071C55.0447 26.5577 56.0737 27.1694 56.3162 27.0295C56.3567 27.006 56.3964 26.9821 56.4354 26.9579C57.2584 26.5416 57.6578 25.8663 57.8019 25.1502C57.864 24.8327 56.6889 24.5385 57.4156 24.5825C57.4649 24.5853 57.9746 24.9572 58.0738 24.9161C58.298 24.8212 58.3784 24.4512 58.4949 24.3479C58.7216 24.1511 58.7405 24.1059 58.8821 23.8778C59.0802 23.5692 59.5719 23.3539 59.6541 22.9486C59.6708 22.8599 59.0651 22.6198 59.043 22.4471C59.0212 22.2739 59.257 21.9982 59.4489 21.9779C59.6408 21.9572 60.0402 22.2697 60.1492 22.3135C61.0658 22.6891 60.1443 21.6219 60.1463 21.5577C60.1931 20.436 61.2988 20.1777 61.8099 19.4484C62.1972 18.8929 62.4238 18.1508 62.8391 17.6558C63.3398 17.0627 64.0136 16.7615 64.4293 16.1441C64.4745 16.0786 63.8266 15.6806 63.881 15.5991C64.4563 14.7393 65.1793 14.0013 66.2291 13.5683C66.3358 13.5244 66.7494 14.0586 66.8854 14.0413C67.7045 13.9266 69.3055 14.1008 67.4259 11.8826C67.7956 11.6443 68.2267 11.3512 68.9091 11.475C69.346 11.5573 69.7093 12.2238 69.6883 11.798C69.6847 11.702 69.1659 11.3303 69.1955 11.2192C69.2854 10.8617 69.6016 10.6569 69.7508 10.3456C69.81 10.2404 69.8588 10.1262 69.8904 9.99535C69.9189 9.87246 69.5048 9.48538 69.4567 9.38993C69.0867 8.59604 70.3617 9.2902 70.4898 9.31413C71.524 9.40973 71.759 8.8885 72.369 8.54721C72.5098 8.47087 71.9617 7.90865 72.0909 7.80804C72.7772 7.28937 73.6356 7.00138 74.4562 7.09154C74.638 7.11378 74.6914 7.77736 74.7858 7.82056C75.1871 8.00997 74.9159 6.81484 75.3057 6.98451C75.3849 7.0199 75.4868 7.56666 75.5139 7.62259C75.9241 8.50439 75.7543 7.15265 75.7988 7.11163C76.3206 6.57431 76.9487 7.90118 77.4356 7.62558C77.4972 7.59097 77.2465 6.91789 77.4294 6.86277C78.6365 6.49595 79.904 6.6103 81.0465 7.12992C81.2221 7.21003 81.1174 7.74147 81.1308 7.80603C81.3399 8.81501 81.4098 7.45141 81.4668 7.39843C81.9019 7.01649 82.3307 8.15055 82.6127 6.52576C82.8374 6.58978 83.0578 6.63389 83.2856 6.66433C85.2835 6.84614 87.7579 7.01192 88.7756 9.11923C88.7899 9.1472 88.4093 9.70081 88.4374 9.75309C88.759 10.3908 89.1944 9.43756 90.3001 8.64974C90.5883 8.45964 89.9567 9.90451 89.9028 10.0063C89.7331 10.3989 89.0486 11.1314 89.0263 11.2155C88.837 11.8669 90.8325 9.23787 91.1601 9.5039C91.1662 9.51603 90.7393 9.95071 90.7265 10.0185C90.6842 10.2292 90.916 10.1092 90.8556 10.3327C90.7153 10.8508 89.6931 12.0844 90.5525 11.6079C90.6648 11.5477 91.8887 10.1282 92.085 10.4369C92.1622 10.5586 92.6156 10.967 92.641 11.1718C92.6682 11.3754 92.153 11.7089 92.1427 11.7358C91.8596 12.5963 91.5045 12.7024 90.7755 13.6517C90.5609 13.9276 90.5825 13.955 90.7291 13.8539C91.0799 13.6073 92.1641 12.6211 92.3771 12.5279C92.6843 12.401 92.4104 13.1038 92.2718 13.3021C92.1395 13.5054 91.7758 13.6605 91.7141 13.793C91.2868 14.6373 92.9577 13.1347 93.4212 13.0181C94.5457 12.793 92.9582 14.1894 92.9235 14.5506C92.9174 14.6546 93.2987 14.3642 93.3766 14.4153C93.6839 14.6341 93.1808 15.0809 93.8705 15.165C93.9802 15.1712 95.2594 14.981 94.4812 15.5096C94.3682 15.5835 93.8591 15.7049 93.8 15.8718C93.7111 16.1205 93.7231 16.4861 93.9518 16.6256C94.1225 16.7323 94.8761 16.2915 94.6875 16.5672C94.6024 16.6887 94.077 16.6875 93.9552 16.8991C93.8319 17.103 93.9691 17.4867 94.0254 17.6279C94.0834 17.7709 94.6855 17.5185 94.7308 17.5186C94.9931 17.5271 95.3736 17.7452 95.3793 17.7724C95.7995 19.109 94.9277 20.4902 95.4603 21.6845C95.5009 21.7784 96.1686 21.6202 96.1818 21.6335C96.5116 21.9354 94.676 21.9121 94.1042 22.2235C95.4738 22.0076 95.2442 22.1834 95.4241 22.3968C95.5121 22.5011 96.037 22.3734 96.0928 22.3769C96.9231 22.4488 95.8922 22.6971 95.6818 22.7521C94.9084 22.9588 95.8519 22.9684 95.3344 23.1052C94.8205 23.2391 94.0269 23.1551 94.0616 23.3754C94.5618 23.3839 95.8318 23.0719 96.0598 23.2223C96.9252 23.7964 96.0234 25.1183 95.9571 25.6443C95.8923 26.1692 95.9954 26.335 95.8377 26.6473C95.5517 27.2175 96.4977 26.9515 96.9593 27.2633C97.4203 27.5786 95.0473 27.559 94.5426 27.6395C94.0379 27.7185 94.5637 27.7384 94.2882 27.8149C94.0128 27.891 93.6597 27.7841 93.5633 27.9293C93.4669 28.0703 94.3918 28.3935 94.9258 28.4146C96.057 28.4562 97.2289 28.2185 96.8342 28.6136C96.8107 28.636 96.1855 28.6012 96.127 28.6853C95.7864 29.2001 95.7084 29.7125 95.5117 30.2284C95.4527 30.3955 95.3783 30.5582 95.2787 30.7147C95.2184 30.8065 94.527 30.7166 94.4841 30.7666C94.0257 31.2635 95.1984 31.1101 96.4656 31.5579C94.7508 31.3392 93.6917 31.4103 93.6331 31.7471C93.5942 31.9572 94.3434 32.0411 94.8377 32.2941C94.9863 32.3735 94.4446 32.441 94.7846 32.5445C95.8924 32.8965 97.2051 32.9972 96.5819 33.3755C96.5528 33.3902 95.9544 33.1694 95.8993 33.2305C95.5382 33.6098 96.6875 34.0025 96.6493 34.5745C96.6178 35.0272 95.6521 35.4291 95.3529 35.7676C93.6022 34.9325 93.8474 35.4441 94.9533 36.2139C94.7735 36.4407 94.691 36.7445 94.3944 36.8849C94.2934 36.9325 93.8399 36.5953 93.7817 36.5746C92.8768 36.2347 93.9335 37.001 93.9439 37.0817C94.0215 37.9003 92.9191 37.7665 93.3475 38.817C93.3636 38.8537 94.4283 39.6819 93.5365 39.2325C93.4765 39.1995 93.1019 38.6754 92.8951 38.8742C92.685 39.0773 91.7968 39.0437 92.0402 39.7329C92.0994 39.8987 92.787 40.7855 92.0064 40.3856C91.901 40.3305 91.6228 40.0608 91.4347 39.9502C90.8361 39.597 91.8322 40.5289 90.8635 39.8809C89.8941 39.2335 89.071 38.8616 89.4231 39.6665C89.433 39.6902 90.1783 40.4769 90.0857 40.5541C89.9377 40.6764 89.5886 40.7247 89.4602 40.8732C89.3985 40.9452 89.9308 41.3573 89.9286 41.3777C89.7617 42.1077 89.0064 42.0305 88.3435 42.3325C88.2318 42.3825 88.5457 43.1293 88.091 43.0139C88.0808 43.0278 88.0381 43.0564 88.0256 43.0684C87.9822 43.0489 87.9326 43.0191 87.876 42.9772C87.2052 42.479 85.5553 39.6193 85.5156 40.5975C85.5053 40.9843 87.5739 44.6277 86.0046 43.0721C85.5838 43.9936 84.3292 43.4796 84.0039 44.5728C83.9889 44.6216 84.4867 45.6828 84.3993 45.7168C84.269 45.765 83.9242 45.3363 83.8235 45.3545C83.3922 45.4199 83.3057 46.0091 82.9277 46.1407C82.7849 46.1915 82.5533 45.6754 82.3843 45.7346C82.2164 45.7934 82.4739 46.4993 82.0908 46.3018C81.7988 46.151 80.9155 44.9063 80.6277 44.861C81.3312 46.1806 81.1732 46.2314 81.1007 46.7173C81.087 46.8114 81.3849 47.2424 81.3909 47.3107C81.4206 47.5988 81.1289 47.2651 81.1737 47.5716C81.1841 47.6454 81.4211 48.0978 81.4429 48.1837C81.6356 48.9324 80.8444 48.0493 80.7091 47.8941C80.1911 47.3072 80.4176 47.9377 80.1514 47.7384C79.8857 47.5387 79.9069 47.1074 79.674 47.0231C79.1927 46.8484 78.832 47.1243 78.5048 47.2636C78.3758 47.322 78.7697 47.8866 78.7584 47.9091C78.7399 47.938 78.7172 47.9588 78.6919 47.9741C78.464 48.1102 78.0349 47.8054 78.4389 48.967C76.7174 45.8999 78.4296 49.3517 77.7381 48.9022C77.683 48.8654 76.9399 47.3802 76.9452 47.108C76.9496 46.8365 77.3416 47.224 77.3293 46.8071C77.3274 46.7089 76.8466 45.2116 76.832 45.1136C76.7222 44.3462 77.8611 46.5504 77.9334 46.6667C78.0779 46.8955 78.1799 47.0276 78.2505 47.0898C78.5613 47.3688 78.231 46.2626 78.2434 46.1502C78.3136 45.5195 78.7343 45.6965 78.8175 45.2277C78.8732 44.9237 78.1429 43.4716 78.2942 43.4493C78.7922 43.3758 80.007 45.2986 79.4815 43.3507C79.3685 42.9355 78.4433 41.4166 79.4046 42.4849C79.4638 42.5531 80.3003 43.5528 80.0404 42.7731C80.0075 42.6749 79.7573 42.2217 79.7574 42.172C79.7612 41.8486 80.056 42.1567 80.1111 41.8995C80.1672 41.6415 80.202 41.2834 80.4594 41.3381C80.6143 41.3703 81.2304 42.1281 81.4001 42.3025C81.8871 42.8062 81.472 41.7562 81.9798 42.4128C82.492 43.0715 82.9539 44.2596 83.4696 44.5753C82.7897 43.4148 82.1021 42.2174 81.4216 41.0483C81.9414 40.7928 82.6567 40.8614 83.1217 40.4934C83.1778 40.4471 82.7258 39.878 82.7753 39.813C82.9878 39.54 83.506 39.8173 83.6789 39.4563C83.8083 39.1764 83.6203 38.3801 83.7356 38.0679C84.5226 38.9905 84.7222 38.7816 84.9285 38.6199L84.2734 39.1659C84.3219 39.1121 84.3712 39.0621 84.4385 39.0379C84.5469 38.9984 84.8326 39.294 84.9803 39.3357C85.5304 39.486 84.4725 38.6209 84.3741 38.4163C83.9509 37.5447 86.1663 39.6827 86.3892 39.3431C86.403 39.3247 85.392 38.0083 85.3402 37.9144C85.0052 37.2998 85.7785 38.2824 85.9598 38.2675C86.289 38.2418 86.6984 38.378 86.5389 37.8413C86.4927 37.6812 85.8673 36.8491 86.5605 37.261C86.6515 37.3146 87.0476 37.6854 87.0828 37.6937C87.6879 37.811 86.4157 36.6758 86.0906 36.1709C85.7649 35.6669 86.8204 36.2421 87.1167 36.4165C87.8784 36.8738 87.3323 36.7421 87.3932 36.803C88.1133 37.5373 88.1087 37.2713 88.2729 37.2097C89.5682 38.266 89.6349 38.0286 88.4376 37.1417C88.307 37.0447 88.3514 37.2351 88.2729 37.2097C87.1032 36.0529 87.0683 35.7664 88.4194 36.53C89.0535 36.8862 89.6411 37.495 89.6307 37.0112C89.6244 36.7936 88.6742 36.1416 88.5097 35.8403C88.127 35.1624 89.2281 35.472 89.2713 35.1078C89.2848 34.9786 88.7015 34.7166 88.6914 34.6179C88.6593 34.3597 89.1501 34.4717 89.0484 34.1772C89.0381 34.1508 88.4568 33.8371 88.4796 33.7845C88.6374 33.3828 89.1799 33.2761 89.3692 32.908C89.463 32.7265 89.2541 32.287 89.3789 32.1541C89.5942 31.9327 90.6209 31.8154 90.4425 31.5026C90.3257 31.3136 89.6675 31.2419 89.2321 31.1206C88.3835 30.9182 89.9471 30.9378 90.1914 30.9002C90.2 30.8978 90.3447 31.0383 90.6877 30.9959C91.3946 31.0039 90.1945 30.8996 90.1914 30.9002C90.35 30.8953 90.5081 30.6405 90.3792 30.5918C90.31 30.566 89.6855 30.5909 89.6612 30.5795C89.6011 30.5514 89.5452 30.5249 89.4936 30.4995C89.0437 29.9083 88.9152 29.3189 89.1415 28.6971C89.1535 28.6844 89.8522 28.6631 89.8715 28.6336C90.1594 28.222 89.2904 28.0187 88.7635 27.7321C88.237 27.4501 88.3888 27.1821 89.5721 26.9101C89.4047 26.6833 89.9069 26.2915 90.212 26.0698C90.5168 25.8442 89.1584 25.926 89.1302 25.9114C88.2277 25.446 88.9761 25.0752 89.041 24.5081C89.0747 24.2424 88.822 23.7483 88.6407 23.4912C88.4953 23.2863 88.7959 23.1226 88.5673 22.9465C88.5367 22.9231 87.9398 23.0295 87.9156 23.0243C87.1684 22.9033 88.6498 22.8106 88.9058 22.7296C89.8364 22.4366 90.3284 22.2529 89.8383 22.032C89.7257 21.9788 87.59 22.1171 87.4493 22.0277C87.27 21.9088 88.0331 21.8399 87.8254 21.7193C87.8083 21.7087 87.344 21.7905 87.3488 21.6945C87.3657 21.2553 87.5473 20.75 87.4098 20.3561C87.3928 20.3019 86.6793 20.5366 86.6432 20.4639C86.4752 20.1265 86.4092 19.7678 86.6545 19.3745C86.717 19.2768 87.2309 19.1666 87.3745 19.1047C88.2399 18.7189 86.891 18.9937 86.8616 18.9886C86.4652 18.8428 86.5321 18.6188 86.5994 18.3911C86.6702 18.1713 86.7331 17.9414 86.4202 17.9935C86.3705 17.9787 85.133 18.7624 86.1611 18.0408C86.2346 17.9996 87.2433 17.201 86.5338 17.7209C86.4917 17.7562 85.97 18.1635 86.0233 18.1222C86.0532 18.0974 85.9571 18.1864 85.9837 18.1829C85.9393 18.1102 85.9538 17.981 86.1253 17.7138C86.2558 17.5179 87.0795 16.5216 86.2263 17.1116C86.1577 17.143 84.3697 18.6232 85.4306 17.4317C85.6051 17.2356 86.7814 16.0236 86.0488 16.5226C85.9095 16.6221 85.6964 16.9379 85.474 17.0523C85.1384 17.2352 85.31 16.7843 84.7298 17.2805C84.6227 17.3646 83.8494 18.212 84.3394 17.492C84.4145 17.378 84.7756 16.9448 84.7842 16.8719C84.8187 16.5177 84.473 16.7379 84.5575 16.3343C84.5831 16.1901 85.0713 15.4203 85.1316 15.1733C85.1938 14.9269 85.1606 14.6436 84.9133 14.9868C84.6746 15.3341 84.096 16.6665 83.9982 16.7489C83.7953 16.9342 83.7808 16.8382 83.7421 16.6565C83.7091 16.477 83.6477 16.2171 83.5228 16.1455C83.4867 16.1245 83.4821 16.6445 83.4373 16.6521C83.4092 16.6572 83.3773 16.6749 83.3403 16.6966C82.5628 16.8088 81.6001 17.0206 81.0464 16.1235C80.5085 15.2637 81.1078 14.5612 80.7001 14.2208C80.4932 14.0593 80.4 15.756 80.3598 15.8118C79.9817 16.3769 79.6431 15.655 79.3211 15.9189C79.255 15.9738 79.3964 16.6467 79.3416 16.6857C79.1605 16.8246 78.9284 16.5462 78.7682 16.6261C78.6966 16.6636 78.7886 17.1781 78.719 17.1481C78.5529 17.0827 78.3949 16.8877 78.1616 16.4351C78.1388 16.3943 78.1003 15.7389 77.9846 15.7377C77.8031 15.7366 77.4667 15.3215 77.4429 15.849C77.4366 16.0076 77.7928 17.1468 77.4657 16.386C77.3997 16.2266 76.9512 14.8638 77.2603 16.0684C77.2876 16.2773 77.8293 17.8589 77.3806 16.881C77.2604 16.6241 76.722 15.5802 76.7631 15.7658C76.7728 15.7938 77.0725 16.361 77.0805 16.4271C77.1095 16.6471 77.0264 16.6184 77.0876 16.8206C77.1075 16.8738 77.5053 17.4053 77.5308 17.4617C77.6099 17.6115 77.4555 17.5167 77.2144 17.4619C77.126 17.4398 76.7614 17.0271 76.7175 16.9863C76.3548 16.6691 76.3844 16.749 76.519 16.9124C76.6384 17.0991 76.8676 17.3737 76.8766 17.4201C76.9693 17.9839 76.3548 17.7335 76.259 18.0719C76.2309 18.1647 76.7281 18.5506 76.7568 18.6015C77.0373 19.0991 76.3065 18.2347 76.1416 18.2288C75.6702 18.217 75.4748 18.5009 75.3229 18.7846C75.267 18.8904 75.89 19.2856 75.8339 19.3746C75.5194 19.903 75.0563 20.3175 74.3696 20.497C74.2385 20.531 73.8623 20.1114 73.7505 20.0453C72.9689 19.5822 73.739 20.5562 73.7924 20.6725C74.0346 21.205 73.6013 20.9513 73.531 21.1778C73.206 22.2742 72.1533 23.0674 71.3978 23.7323C70.4172 24.5986 69.4032 25.1062 68.8347 26.204C68.7987 26.2726 69.4608 26.6206 69.4381 26.6845C69.1172 27.4908 68.4257 28.0413 68.1779 28.8761C68.1566 28.9438 68.8131 29.2198 68.7999 29.3394C68.7785 29.5853 68.6035 29.8089 68.296 29.8928C68.1471 29.9344 67.6956 29.505 67.5559 29.5542C67.2292 29.6687 67.0455 29.8937 67.0159 30.1831C67.0047 30.307 67.7196 30.5031 67.6566 30.6357C67.4198 31.1552 67.2153 31.6733 66.8499 32.1163C66.6757 32.2457 66.3868 32.3917 65.9034 32.5386C65.8273 32.5595 64.4337 32.1005 64.6574 32.311C65.0382 32.4547 65.4899 32.6129 65.8989 32.7605C65.7691 33.8326 64.9805 35.0055 64.6861 36.4021C64.674 36.4604 65.4571 36.4776 65.4379 36.5892C65.328 37.2396 65.4638 37.9 64.6278 38.5263C64.5461 38.5888 63.1887 38.424 63.3752 38.6546C63.4091 38.6959 63.563 39.0329 63.8527 39.1366C63.8964 39.1513 64.5368 39.1445 64.5472 39.2475C64.5977 39.84 64.4167 40.4435 64.0052 41.0188C63.9376 41.1111 63.2625 40.985 63.2085 41.0512C62.8302 41.5329 63.3367 42.0684 62.7211 42.5231C62.3072 42.8277 61.1327 42.7245 59.979 42.9119C59.8161 42.9377 59.7941 43.1409 59.1223 43.168C57.4325 43.2379 55.579 43.1659 53.7781 43.2516C53.3899 43.2728 53.8169 43.5937 52.8738 43.4222C52.8105 43.4136 52.4934 43.1601 52.1745 43.1087C51.9539 43.0698 51.2713 43.1585 50.9883 43.0744C50.7056 42.9907 51.2775 42.8758 50.9456 42.7382C50.61 42.596 49.8317 42.6604 49.7397 42.3632ZM91.5685 25.0438C92.2019 24.7958 89.8169 24.9904 90.4051 25.1368C90.4364 25.1437 91.5374 25.0563 91.5685 25.0438ZM83.6117 42.3895C84.382 43.1524 83.6926 41.7516 83.1142 41.1531C82.5381 40.554 83.3804 42.1568 83.6117 42.3895ZM81.8213 44.3534C82.4872 44.932 80.8372 41.9668 80.9176 42.7104C80.9218 42.7525 81.7829 44.3196 81.8213 44.3534ZM59.6486 42.0906C59.6168 42.0909 59.5846 42.2453 59.6162 42.2481C60.3755 42.3319 60.4391 42.0339 59.6486 42.0906ZM79.9638 46.3137C80.2581 46.678 80.2466 46.0859 79.8807 45.6332C79.5877 45.2685 79.5993 45.8597 79.9638 46.3137ZM91.903 15.1188C91.9332 15.0995 91.908 14.988 91.7333 15.0888C91.172 15.4144 91.3984 15.446 91.903 15.1188ZM76.0369 48.2749C76.6747 48.132 78.215 50.5089 77.4112 50.5248C77.2679 50.5264 77.3054 49.5927 77.0487 49.431C76.5847 49.1346 77.1119 50.8255 76.4479 50.0875C76.3283 49.9517 75.9983 48.2774 76.0363 48.2709C76.0365 48.2723 76.0367 48.2736 76.0369 48.2749ZM94.4206 24.6726C94.4517 24.6657 94.4672 24.5077 94.4356 24.5071C93.6715 24.495 93.6397 24.8101 94.4206 24.6726ZM88.0368 9.45461C88.0616 9.38931 87.7241 9.14701 87.6839 9.19873C86.9765 10.2326 87.5652 10.6774 88.0368 9.45461ZM95.3032 35.7516C95.9113 36.2524 95.8744 36.5258 94.9546 36.2136C95.0859 36.072 95.1788 35.903 95.3032 35.7516Z" fill="#FFC405"/>
<path d="M77.1318 41.2936C77.768 41.0878 78.5979 41.3175 79.2203 41.6307C79.4158 41.7278 79.3112 42.1507 79.4464 42.2369C79.7159 42.4051 79.9566 42.2003 80.2183 42.4005C80.3045 42.4689 80.1862 43.139 80.2768 43.1954C80.7699 43.4995 81.2469 43.3364 81.743 43.4886C84.209 44.2408 86.6317 44.5633 89.1371 44.9835C89.9663 45.1217 90.9367 45.7825 91.8181 45.5696C91.9201 45.544 91.8966 44.9519 91.9186 44.9046C92.2634 44.1806 92.0927 45.3626 92.2794 45.533C93.0131 46.2056 93.8823 46.3237 94.6568 46.1627C94.9916 46.0931 94.7681 44.8977 95.0383 45.5818C95.0568 45.628 94.9186 46.2442 95.0009 46.3187C95.1819 46.4857 95.5852 46.4121 95.735 46.4774C96.0218 46.6061 96.0795 46.6059 96.3676 46.6451C96.7542 46.7037 97.1872 47.0702 97.6519 46.9938C97.7502 46.9755 97.717 46.3221 97.8843 46.2361C98.0419 46.1482 98.4672 46.2709 98.5772 46.4446C98.6899 46.6179 98.5422 47.1043 98.5461 47.2224C98.5791 48.2176 99.303 46.9859 99.4095 46.9771C99.8842 46.8822 100.365 46.9556 101.004 47.2562C101.593 47.5782 102.04 48.1337 102.649 48.4333C103.362 48.7813 104.252 48.9837 104.913 49.4465C105.696 49.9993 106.151 50.7635 106.905 51.3347C106.984 51.3963 107.39 50.7487 107.491 50.8257C108.573 51.6517 109.459 52.7863 109.774 54.0866C109.805 54.2164 109.177 54.4807 109.174 54.6312C109.171 55.3267 108.865 56.4043 109.854 56.3327C110.219 56.3842 110.719 56.3512 111.413 56.1685C111.683 56.9157 111.827 57.7054 111.408 58.3541C111.135 58.7672 110.358 58.659 110.751 58.9411C110.839 59.007 111.424 58.7419 111.51 58.8584C111.869 59.3463 111.771 59.9546 112.166 60.4185C112.248 60.5137 112.805 60.4083 112.91 60.4251C113.767 60.5835 112.458 61.1748 112.366 61.2625C111.695 62.0075 112.01 62.4443 112.011 63.0562C112.01 63.1977 112.766 63.0093 112.793 63.1477C112.919 63.8646 112.842 64.6102 112.473 65.2773C112.389 65.4254 111.748 65.2553 111.675 65.3234C111.359 65.6207 112.577 65.7572 112.292 66.0486C112.233 66.1092 111.683 66.0338 111.621 66.0412C110.654 66.1496 111.993 66.404 112.019 66.456C112.376 67.0886 110.93 67.3134 111.061 67.8833C111.078 67.9526 111.793 67.89 111.798 68.0816C111.829 69.3665 111.394 70.6769 110.566 71.7502C110.439 71.9168 109.957 71.663 109.89 71.6603C108.858 71.6127 110.152 72.0493 110.187 72.1242C110.313 72.4197 110.038 72.6056 109.959 72.818C109.883 73.0246 109.97 73.2478 110.661 73.6352C109.505 75.5961 109.239 78.1307 106.779 79.086C106.75 79.098 106.231 78.6714 106.176 78.6961C105.504 78.9826 106.42 79.4917 107.152 80.6292C107.331 80.921 105.916 80.2259 105.814 80.1714C105.427 79.9888 104.723 79.2737 104.639 79.2493C103.982 79.0528 106.546 81.1302 106.27 81.452C106.258 81.4579 105.834 81.0197 105.766 81.0058C105.555 80.9603 105.668 81.1973 105.444 81.1345C104.925 80.9885 103.7 79.9554 104.152 80.8357C104.21 80.9503 105.619 82.1854 105.301 82.3885C105.175 82.4679 104.74 82.9456 104.527 82.978C104.314 83.0138 103.988 82.4915 103.961 82.4817C103.076 82.2195 102.98 81.856 102.023 81.1327C101.079 80.4018 103 82.4445 103.138 82.7414C103.274 83.0389 102.586 82.7671 102.378 82.6436C102.168 82.522 101.994 82.1667 101.857 82.1138C100.961 81.7646 102.598 83.3104 102.76 83.7555C103.128 84.8192 101.583 83.3908 101.202 83.4283C101.096 83.4401 101.444 83.7701 101.406 83.855C101.249 84.1879 100.706 83.7835 100.759 84.4789C100.77 84.5912 101.237 85.7932 100.55 85.1523C100.453 85.059 100.221 84.5896 100.043 84.5715C99.7744 84.5452 99.4082 84.6546 99.3211 84.9178C99.2539 85.1145 99.8776 85.7277 99.5579 85.6188C99.4164 85.5691 99.2878 85.0577 99.0466 84.9978C98.808 84.937 98.4566 85.1827 98.3259 85.282C98.1966 85.3814 98.6086 85.8889 98.6202 85.9329C98.6833 86.1875 98.5643 86.6227 98.539 86.6364C97.3318 87.4418 95.6641 87.0728 94.6181 87.981C94.5358 88.0513 94.8962 88.6357 94.8867 88.6527C94.6877 89.0667 94.1523 87.3086 93.6622 86.87C94.2938 88.1043 94.0579 87.9393 93.8919 88.1873C93.8137 88.3073 94.1059 88.7624 94.1195 88.8168C94.2094 89.2015 94.1321 89.2024 94.0128 89.0775C93.8643 88.946 93.6729 88.6536 93.6076 88.5588C93.1568 87.8947 93.4064 88.8072 93.1114 88.357C92.8289 87.9054 92.6984 87.1158 92.4837 87.2156C92.6032 87.7026 93.2786 88.8279 93.1622 89.1016C92.6687 90.1763 90.8985 89.5784 90.3207 89.5544C89.7065 89.5527 89.5269 89.6627 89.1628 89.5252C88.5125 89.2666 88.8331 90.2003 88.4646 90.6717C88.0867 91.1388 88.1383 88.7624 88.0509 88.2583C87.9699 87.7537 87.9447 88.2796 87.8671 88.0037C87.7914 87.7277 87.9043 87.3755 87.7576 87.2778C87.6165 87.1809 87.2517 88.0976 87.2057 88.63C87.1136 89.7588 87.3323 90.9398 86.895 90.5293C86.8705 90.5049 86.9439 89.8819 86.851 89.8197C86.1206 89.3457 85.3832 89.289 84.7081 88.8185C84.6163 88.7528 84.7492 88.0679 84.6973 88.0219C84.1624 87.5383 84.2802 88.7173 83.8389 89.9811C84.0639 88.268 83.9841 87.203 83.5663 87.1495C83.3132 87.1158 83.2757 87.8697 83.046 88.3784C82.9762 88.5317 82.8521 87.9958 82.7763 88.3436C82.524 89.4798 82.5447 90.7908 82.1393 90.218C82.1221 90.191 82.269 89.5705 82.2039 89.5232C81.7877 89.2138 81.5649 90.4066 81.0441 90.4766C80.6333 90.5313 80.0691 89.6876 79.6611 89.4904C80.0136 87.5825 79.545 87.9482 79.127 89.2299C78.8575 89.1227 78.5439 89.1376 78.3119 88.9013C78.2326 88.8207 78.406 88.2828 78.4066 88.2209C78.4236 87.2523 78.0422 88.5021 77.9703 88.5392C77.221 88.888 76.913 87.8079 76.0889 88.606C76.0596 88.6348 75.7158 89.9388 75.7761 88.942C75.7815 88.8735 76.1228 88.3239 75.8474 88.2103C75.5735 88.0969 75.2046 87.2646 74.663 87.7739C74.5362 87.8975 74.0213 88.8971 74.0383 88.0201C74.041 87.9011 74.1626 87.533 74.1782 87.3152C74.2268 86.6207 73.8255 87.9246 73.9677 86.7669C74.0231 86.3162 74.0453 85.9025 74.0185 85.6056C73.9786 85.1403 73.8412 84.966 73.4806 85.3676C73.4639 85.3868 73.0618 86.394 72.9405 86.3379C72.7494 86.2487 72.5461 85.9417 72.3459 85.8746C72.2487 85.8425 72.0753 86.4933 72.0542 86.4986C71.242 86.592 70.986 85.8232 70.4609 85.2471C70.3738 85.1459 69.5522 85.7309 69.6986 84.9686C69.8806 84.1455 71.8729 81.5209 71.0338 81.8983C70.7382 82.0755 67.8891 85.1658 68.8974 83.1816C68.4146 83.1043 68.1934 82.7165 68.0456 82.3578L68.0973 82.4322C67.9684 81.9765 67.8443 81.5338 67.2676 81.3029C67.2192 81.2846 66.1273 81.7142 66.0942 81.6172C66.048 81.4741 66.4934 81.1495 66.4778 81.041C66.4245 80.579 65.8297 80.4262 65.7126 80.0097C65.6674 79.8523 66.2015 79.6647 66.1498 79.4793C66.0989 79.2961 65.3703 79.487 65.591 79.104C65.7591 78.8116 67.0694 78.0261 67.1337 77.7295C65.7574 78.3143 65.7158 78.1418 65.2296 78.0053C65.1356 77.9795 64.6812 78.2413 64.6119 78.2394C64.3184 78.2338 64.6745 77.9671 64.362 77.9761C64.2868 77.9777 63.8146 78.1723 63.7264 78.1845C62.9577 78.2947 63.9013 77.5673 64.0667 77.443C64.6932 76.9674 64.042 77.1287 64.2609 76.872C64.4798 76.6154 64.914 76.692 65.014 76.4548C65.2213 75.9654 64.9642 75.5461 64.8392 75.1797C64.7861 75.0339 64.1958 75.391 64.1735 75.3761C63.8949 75.1524 64.4357 74.5697 63.1197 74.948C66.0673 73.4455 63.1259 74.7305 63.1539 74.3276L63.2183 74.4319C63.2146 74.4081 63.2203 74.3744 63.2368 74.329C63.2647 74.2742 64.4842 73.1428 64.7907 73.1314C64.8051 73.1309 64.8184 73.1317 64.8306 73.1336C64.8717 73.2034 65.0143 73.3901 65.0369 73.4679C65.2497 73.5317 64.9192 73.9054 65.3262 73.934C65.4258 73.9389 66.9645 73.58 67.0666 73.5801C67.8619 73.5704 65.5853 74.5596 65.4652 74.6253C64.1706 75.342 65.8404 74.9978 65.9802 75.0343C66.6166 75.1912 66.4132 75.6215 66.8819 75.7704C67.1852 75.8676 68.6996 75.2774 68.7122 75.4405C68.7541 75.9791 66.733 77.025 68.7319 76.7039C69.1583 76.6346 70.7502 75.8414 69.6088 76.7215C69.5356 76.7743 68.4738 77.5361 69.2753 77.3485C69.3763 77.3246 69.8488 77.113 69.8987 77.1181C70.2234 77.1549 69.8937 77.4268 70.1485 77.5077C70.4037 77.5894 70.7601 77.6555 70.6887 77.9117C70.6464 78.066 69.8494 78.6311 69.6651 78.791C69.1325 79.2488 70.2103 78.9085 69.5243 79.376C68.8379 79.8516 67.6173 80.2278 67.2802 80.7409C68.4793 80.1317 69.7157 79.517 70.9227 78.9063C71.1316 79.4014 71.0656 80.045 71.3305 80.5229L70.9633 79.9944C70.9662 80 70.9744 80.0075 70.9866 80.0141C71.0062 80.0234 71.539 79.5342 71.5694 79.5264C71.691 79.4915 71.4432 79.9732 71.7302 79.9478C71.9557 79.9274 72.5575 79.4245 72.7887 79.3514C71.9799 80.6659 72.5293 80.4047 72.6323 80.6265C72.6725 80.7064 72.4618 81.0593 72.4452 81.2043C72.3957 81.7452 72.9631 80.5037 73.1128 80.3419C73.7281 79.6346 72.3392 82.3843 72.6989 82.4702C72.7243 82.4792 73.5821 81.0654 73.6382 80.9776C74.0473 80.4277 73.4378 81.5134 73.4915 81.6674C73.5884 81.947 73.5998 82.3718 73.989 81.9989C74.1089 81.8899 74.5702 80.966 74.4572 81.7586C74.4435 81.8627 74.2755 82.3785 74.2805 82.4133C74.396 83.0005 74.8728 81.362 75.1422 80.8367C75.1918 80.7411 75.2284 80.7021 75.2557 80.7043C75.4454 80.7314 75.4606 81.599 75.4462 81.8813C75.4001 82.7741 75.2262 82.2126 75.1962 82.2938C74.8385 83.2601 75.1169 83.1483 75.2655 83.2747C74.8846 84.9019 75.1547 84.8659 75.4252 83.4001C75.4543 83.2399 75.2815 83.3574 75.2655 83.2747C75.8148 81.722 76.1285 81.5839 76.054 83.143C76.0196 83.8738 75.6963 84.6571 76.1838 84.4602C76.4066 84.3716 76.6021 83.2353 76.8421 82.9702C77.3811 82.3633 77.6255 83.522 78.0523 83.4442C78.2053 83.4155 78.2069 82.7705 78.3157 82.7296C78.6044 82.6188 78.7259 83.1289 79.0292 82.9458C79.0567 82.9284 79.1381 82.2717 79.2177 82.28C79.8192 82.3287 80.2484 82.8447 80.8557 82.967C81.151 83.0267 81.7328 82.7568 82.0192 82.8752C82.5144 83.0783 83.0302 84.116 83.5066 83.9361C83.8133 83.8211 83.8213 83.1579 83.9887 82.7241C84.3044 81.8825 84.5549 83.4712 84.5974 83.7166C84.5989 83.725 84.3405 83.8585 84.4419 84.2071C84.4588 84.9166 84.5949 83.7195 84.5974 83.7166C84.6207 83.8761 85.0967 84.0618 85.2006 83.9407C85.2568 83.8752 85.2656 83.2497 85.2936 83.2273C85.9552 82.7066 86.5303 82.561 87.1154 82.8396C87.126 82.8519 87.127 83.551 87.1523 83.5713C87.5139 83.8726 87.6994 83.0058 87.9132 82.4811C88.1278 81.9558 88.3087 82.1067 88.6063 83.2791C88.7801 83.1062 89.12 83.5907 89.3402 83.8777C89.561 84.1646 89.3191 82.8247 89.3249 82.7963C89.5196 81.8775 89.8622 82.5926 90.2415 82.5972C90.4183 82.6032 90.6208 82.3087 90.667 82.1189C90.6676 82.1166 90.6683 82.1144 90.669 82.1122C90.8517 81.9081 91.1327 82.113 91.2486 81.8346C91.2654 81.7963 90.974 81.2643 90.9726 81.2391C90.8932 80.4731 91.4242 81.8608 91.5865 82.0761C92.1699 82.8623 92.5171 83.2635 92.6009 82.7181C92.6235 82.5915 91.8695 80.5856 91.9226 80.4193C91.9998 80.2033 92.288 80.9139 92.363 80.6682C92.3693 80.648 92.1523 80.2295 92.2548 80.2004C92.7362 80.0552 93.3253 80.0512 93.734 79.7658C93.7899 79.7289 93.3476 79.1199 93.4208 79.0566C93.7665 78.7584 94.1814 78.5424 94.7264 78.612C94.861 78.6315 95.0868 79.1082 95.1893 79.2274C95.8166 79.9436 95.2487 78.6825 95.2586 78.6447C95.5271 77.6818 96.7181 78.3496 96.9566 77.4101C96.9737 77.3528 96.2734 76.0347 97.1798 76.9136C97.2385 76.9736 98.179 77.8626 97.6994 77.1152C97.6686 77.0691 97.1744 76.6216 97.3269 76.5786C97.4825 76.5327 97.3517 76.0573 97.9885 76.458C98.1863 76.5869 99.1891 77.4053 98.6162 76.5361C98.5842 76.4683 97.1404 74.6451 98.3415 75.6968C98.5393 75.8696 99.7397 77.0579 99.2746 76.292C99.1822 76.1456 98.8572 75.9414 98.7611 75.7008C98.6087 75.3344 99.0923 75.4744 98.6534 74.8329C98.578 74.7169 97.7904 73.876 98.5246 74.3526C98.6405 74.4262 99.0522 74.8125 99.1396 74.8058C99.5614 74.7699 99.4449 74.3043 99.9287 74.2984C100.1 74.2937 100.811 74.8658 101.079 74.9093C101.346 74.9538 101.682 74.8752 101.399 74.5453C101.114 74.2188 99.8254 73.5394 99.8121 73.3434C99.7348 72.5178 100.771 72.3573 101.149 71.7415C101.203 71.6532 100.689 71.5435 100.73 71.4057C100.807 71.1453 100.791 70.7544 100.902 70.4121C101.04 69.9687 101.297 69.5764 101.888 69.3883C102.861 69.0709 103.38 69.8567 103.818 69.5337C104.028 69.3678 102.415 68.8275 102.371 68.7757C101.926 68.2372 102.714 68.0661 102.55 67.6296C102.515 67.5406 101.827 67.5163 101.805 67.4432C101.723 67.1959 102.059 66.9937 102.031 66.7654C102.017 66.6631 101.497 66.617 101.547 66.5323C101.663 66.3285 101.901 66.1647 102.409 65.9976C102.455 65.9816 103.09 66.1779 103.129 66.0142C103.192 65.7506 103.7 65.4428 103.219 65.1054C103.075 65.0054 101.883 64.9415 102.715 64.7921C102.889 64.7612 104.32 64.8697 103.09 64.5958C102.887 64.5397 101.226 64.152 102.304 63.9954C102.588 63.9536 103.762 63.8359 103.577 63.7258C103.547 63.7119 102.906 63.7714 102.843 63.6862C102.632 63.3922 102.69 63.0804 102.473 62.8093C102.413 62.7376 101.758 62.8875 101.69 62.7831C101.505 62.5034 101.64 62.1553 101.811 61.8871C101.875 61.7885 102.428 61.7689 102.486 61.7545C103.432 61.4988 102.123 61.6336 102.043 61.62C101.558 61.5081 102.135 61.2606 101.945 61.1743C101.895 61.1541 101.295 61.3357 101.239 61.3441C100.701 61.4418 101.795 61.181 101.905 61.1139C102.217 60.9223 102.135 60.8621 102.1 60.9826C102.09 61.031 101.411 61.2941 101.416 61.3484C101.426 61.4405 101.471 61.5693 101.581 61.7462C101.282 61.3171 101.149 60.9137 101.195 60.4645C101.208 60.3515 101.691 60.0648 101.783 59.9751C102.426 59.3389 101.341 59.9268 101.231 59.9755C100.713 60.1727 101.064 59.8217 100.906 59.7771C100.16 59.6032 99.935 58.9747 99.4485 58.4076C98.855 57.7059 98.2873 56.8226 97.1726 56.5016C97.1778 56.5043 97.1829 56.5069 97.1879 56.5094C97.278 56.5541 96.9092 57.2084 96.9888 57.257C97.2405 57.3964 97.1881 57.3836 97.125 57.373C97.0452 57.3555 96.9171 57.3159 96.7536 57.2751C96.4401 57.1955 96.027 57.1171 95.5902 57.1719C95.5165 57.1794 95.534 57.8919 95.4139 57.9276C95.1776 58.0071 94.8732 57.9349 94.6556 57.6864C94.5471 57.5663 94.7696 56.9806 94.6575 56.8719C94.3907 56.6169 94.0831 56.5378 93.7654 56.6238C93.6297 56.6619 93.7656 57.3976 93.5947 57.3913C92.4461 57.3654 91.2831 57.4143 90.1176 56.4155C90.0378 56.3469 90.0423 54.879 89.8468 55.1503C89.812 55.5559 89.7879 56.0339 89.7594 56.4679C87.9949 56.6109 86.2505 56.037 84.4587 55.9069C84.3829 55.9016 84.4917 56.6818 84.3452 56.6755C83.5013 56.6402 82.6717 56.8355 81.8217 56.0462C81.7366 55.969 81.8076 54.6036 81.5482 54.8053C81.5011 54.8421 81.1201 55.0173 81.0121 55.3122C80.9978 55.3567 81.057 55.9957 80.9324 56.0121C80.2179 56.0966 79.4614 55.9404 78.7575 55.5434C78.6406 55.4781 78.7729 54.8002 78.6895 54.7477C78.1006 54.3811 77.4773 54.893 76.9118 54.2742C76.5471 53.8577 76.6839 52.6841 76.4843 51.5279C76.4551 51.3647 76.2224 51.3386 76.2116 50.6662C76.1818 48.9753 76.2967 47.1238 76.2517 45.3215C76.241 44.9332 75.9284 45.3513 76.1136 44.4132C76.1259 44.3504 76.3566 44.0392 76.416 43.7211C76.4569 43.5012 76.3848 42.8172 76.4683 42.5357C76.5506 42.2544 76.6483 42.8279 76.7808 42.4974C76.916 42.1628 76.8577 41.3845 77.1318 41.2936ZM90.3835 85.123C90.7132 85.7121 90.102 83.3985 90.1033 83.9901C90.104 84.0214 90.3675 85.094 90.3835 85.123ZM69.4894 81.0544C68.7028 81.8051 70.1314 81.1723 70.7475 80.6112C71.3685 80.0592 69.73 80.8302 69.4894 81.0544ZM67.5756 79.0356C66.9574 79.6745 70.0346 78.2441 69.2826 78.2595C69.24 78.2601 67.6117 78.999 67.5756 79.0356ZM77.4188 51.2024C77.4178 51.1706 77.2475 51.1387 77.2428 51.1702C77.1489 51.9296 77.4869 51.9928 77.4188 51.2024ZM65.7113 76.8516C65.3235 77.1165 65.9228 77.1802 66.4036 76.849C66.7906 76.5831 66.1936 76.5225 65.7113 76.8516ZM100.481 82.5091C100.505 82.5354 100.62 82.4871 100.494 82.3295C100.089 81.8225 100.073 82.0665 100.481 82.5091ZM63.1339 72.4407C63.6381 73.0594 61.902 75.2978 61.6546 74.6252C61.5991 74.4962 62.4612 74.1538 62.5146 73.8587C62.5904 73.3016 61.2706 74.4868 61.6433 73.5606C61.7111 73.3907 63.1088 72.4001 63.1374 72.4386C63.1362 72.4393 63.135 72.44 63.1339 72.4407ZM91.2131 87.8767C91.2253 87.9065 91.3958 87.8909 91.391 87.8594C91.2679 87.1055 90.9455 87.1308 91.2131 87.8767ZM106.518 78.3146C106.58 78.3445 106.861 78.0322 106.816 77.9865C105.882 77.1453 105.341 77.7289 106.518 78.3146ZM79.6635 89.4382C79.3403 90.1563 79.0963 90.2021 79.1276 89.231C79.3033 89.3165 79.4854 89.3581 79.6635 89.4382Z" fill="#FFC405"/>
<path d="M69.7659 73.8419C69.9651 74.4801 69.7268 75.2904 69.4073 75.9014C69.3082 76.0941 68.8864 75.9857 68.7988 76.1206C68.6283 76.3712 68.8303 76.6252 68.6277 76.8765C68.5584 76.9614 67.8895 76.8371 67.8323 76.9266C67.5235 77.4035 67.682 77.8818 67.5255 78.3657C66.7525 80.7843 66.4146 83.1581 66.006 85.5967C65.9459 85.961 65.7837 86.3397 65.6415 86.742C65.4615 87.3136 65.2999 87.8647 65.3953 88.4109C65.416 88.5249 66.0092 88.5169 66.0555 88.5429C66.761 88.9575 65.5884 88.7226 65.4077 88.9188C64.6906 89.7086 64.4932 90.6049 64.5527 91.4563C64.5787 91.8199 65.7973 91.7121 65.08 91.9285C65.0315 91.9431 64.4377 91.7257 64.3524 91.805C64.1612 91.9834 64.1785 92.4065 64.0897 92.5591C63.9168 92.849 63.9099 92.9007 63.8257 93.191C63.7019 93.5965 63.2694 93.9698 63.2694 94.4385C63.2712 94.5391 63.9216 94.6122 63.9785 94.7928C64.0352 94.9752 63.8544 95.3437 63.6647 95.4268C63.4762 95.5078 63.0196 95.2849 62.9025 95.2696C61.9194 95.1268 63.0336 96.0116 63.0409 96.0846C63.1793 97.3242 62.0843 97.8968 61.6404 98.7957C61.3012 99.4865 61.1266 100.334 60.7182 100.952C60.2282 101.689 59.5394 102.111 59.1075 102.834C59.0612 102.909 59.739 103.257 59.6826 103.352C59.0783 104.362 58.284 105.24 57.1487 105.776C57.0343 105.829 56.6294 105.284 56.4864 105.31C55.6171 105.486 53.9802 105.321 55.7539 107.629C55.3468 107.886 54.848 108.214 54.1497 108.075C53.7001 107.986 53.3898 107.286 53.3658 107.732C53.3597 107.831 53.8612 108.228 53.8184 108.343C53.6361 108.831 53.1197 109.02 52.9912 109.566C52.9653 109.679 53.3572 110.089 53.4041 110.183C53.5112 110.404 53.4907 110.497 53.4056 110.515C53.0378 110.696 52.3146 110.331 52.2058 110.319C50.9897 110.246 50.665 110.69 49.9818 110.944C49.8275 110.998 50.2804 111.64 50.1346 111.719C49.3714 112.118 48.5571 112.264 47.7802 112.087C47.6105 112.044 47.6158 111.381 47.5295 111.327C47.1607 111.098 47.3159 112.314 46.9599 112.11C46.886 112.068 46.8252 111.516 46.8028 111.458C46.4616 110.547 46.5344 111.908 46.4884 111.946C45.9515 112.445 45.3925 111.091 44.8719 111.351C44.8092 111.383 45.0346 112.065 44.8515 112.114C43.6206 112.441 42.2847 112.319 41.0818 111.785C40.8947 111.703 41.0155 111.172 41.0022 111.108C40.7944 110.096 40.6999 111.459 40.639 111.511C40.1651 111.887 39.7263 110.747 39.398 112.366C37.3928 111.794 35.3355 112.605 33.4782 110.993C33.4549 110.974 33.5549 110.31 33.5085 110.275C32.9472 109.849 32.9736 110.897 32.4524 112.128C32.3166 112.436 32.1618 110.875 32.1489 110.76C32.0948 110.337 32.2958 109.355 32.272 109.272C32.0755 108.616 31.7689 111.9 31.3981 111.861C31.3873 111.854 31.5021 111.256 31.4781 111.193C31.4055 110.994 31.2813 111.223 31.21 111.004C31.0868 110.619 31.1253 109.598 30.9639 109.527C30.9041 109.504 30.8256 109.572 30.6975 109.776C30.6236 109.882 30.4085 111.759 29.8908 111.551C29.6859 111.481 28.7867 111.199 28.6185 110.966C28.4447 110.748 28.8674 110.283 28.8603 110.25C28.7059 109.274 29.0703 109.085 29.4916 107.965C29.972 106.878 28.4759 109.248 28.2026 109.441C27.9239 109.632 27.9935 108.857 28.0821 108.63C28.1618 108.399 28.4877 108.172 28.5155 108.026C28.7309 107.092 27.4292 108.925 26.9877 109.124C25.8981 109.543 27.1547 107.831 27.1137 107.459C27.0956 107.35 26.7786 107.711 26.6881 107.669C26.3279 107.488 26.7389 106.952 26.0285 106.965C25.9178 106.976 24.677 107.362 25.346 106.694C25.4444 106.601 25.9279 106.4 25.9546 106.219C25.9947 105.95 25.9109 105.569 25.6559 105.455C25.4655 105.368 24.798 105.935 24.9338 105.621C24.9959 105.483 25.5191 105.409 25.6011 105.172C25.6829 104.936 25.4788 104.562 25.395 104.418C25.3116 104.277 24.7582 104.624 24.713 104.631C24.4513 104.66 24.0326 104.483 24.022 104.454C23.3646 103.11 24.0015 101.535 23.2838 100.353C23.2285 100.259 22.5911 100.515 22.5759 100.502C22.1998 100.226 24.0255 100.008 24.5435 99.6045C23.2184 100.012 23.4197 99.8018 23.2069 99.5991C23.1027 99.4993 22.6024 99.7046 22.5464 99.7081C21.7108 99.7411 22.6952 99.3454 22.8954 99.2598C23.6311 98.9431 22.6927 99.0551 23.1843 98.8413C23.6728 98.6308 24.4733 98.6137 24.4039 98.3854C23.9066 98.444 22.6959 98.9419 22.4465 98.8159C21.4993 98.3315 22.1861 96.8353 22.1584 96.2952C22.1297 95.7525 21.9981 95.6197 22.0894 95.2981C22.1757 95.0126 21.9836 94.999 21.7278 95.0735C21.4574 95.0745 21.1049 95.1112 20.8191 94.9009C20.2527 94.4893 22.6251 94.1915 23.1012 94.0043C23.5848 93.8395 23.0631 93.9064 23.3235 93.787C23.585 93.6721 23.9486 93.7204 24.0244 93.57C24.1017 93.435 23.1472 93.2132 22.6128 93.2315C21.4815 93.2857 20.3387 93.6574 20.6895 93.1683C20.7107 93.1413 21.3378 93.1335 21.3879 93.0351C21.767 92.2577 21.73 91.5401 22.0957 90.8204C22.147 90.721 22.844 90.7492 22.8817 90.691C23.2784 90.0921 22.1308 90.3859 20.8139 90.165C22.5404 90.1091 23.5803 89.8614 23.5614 89.4344C23.551 89.179 22.8016 89.269 22.2607 89.1382C22.0977 89.0986 22.6025 88.8818 22.2466 88.8701C21.0833 88.8316 19.7992 89.089 20.2873 88.6048C20.3106 88.5834 20.9475 88.6087 20.9818 88.5377C21.2068 88.0861 19.9937 88.102 19.8207 87.6333C19.6849 87.2645 20.3886 86.5638 20.4879 86.1367C22.4262 86.0479 21.963 85.6757 20.6189 85.5766C20.6604 85.3014 20.5708 85.008 20.7432 84.7352C20.8019 84.6409 21.3659 84.6748 21.426 84.6604C21.5935 84.6212 21.69 84.5871 21.7353 84.5571C21.7271 84.5152 21.7579 84.405 21.7677 84.3634C22.0149 84.3254 21.2266 83.9075 21.2076 83.8435C21.0112 83.0192 22.1308 82.9424 21.5384 81.9539C21.5166 81.9194 20.3223 81.2925 21.2824 81.5707C21.3478 81.5916 21.8049 82.0506 21.98 81.8037C22.157 81.553 23.0497 81.3975 22.6919 80.7461C22.6052 80.5897 21.7684 79.8377 22.6152 80.0737C22.7297 80.1065 23.0536 80.3195 23.2603 80.3903C23.9188 80.6165 22.7637 79.8907 23.8439 80.3316C24.9242 80.7723 25.8135 80.9607 25.3243 80.2172C25.3104 80.195 24.4277 79.5658 24.5077 79.4646C24.6355 79.3044 24.9765 79.1744 25.0801 78.9919C25.1295 78.904 24.5242 78.6085 24.5229 78.5871C24.5639 77.8033 25.3341 77.7055 25.9498 77.241C26.063 77.1575 25.5169 76.3275 26.2629 76.5155C27.0771 76.7256 29.6366 78.8124 29.3406 77.8593C29.2196 77.483 25.9977 74.802 28.0359 75.6726C28.1341 74.6167 29.5196 74.6144 29.4745 73.4342C29.4726 73.3817 28.6383 72.5576 28.7139 72.4882C28.826 72.3888 29.3008 72.6677 29.3929 72.6107C29.7902 72.3796 29.6837 71.7773 30.0115 71.504C30.1336 71.4016 30.5252 71.81 30.6725 71.6873C30.8196 71.5649 30.3383 70.9879 30.7815 71.0286C31.1169 71.0629 32.3621 71.946 32.6543 71.8908C31.5657 70.8659 31.6979 70.7667 31.633 70.2648C31.6196 70.1685 31.2004 69.8533 31.1749 69.7888C31.0652 69.5164 31.4466 69.7435 31.3221 69.4546C31.2921 69.3853 30.9317 69.0236 30.8875 68.9459C30.4984 68.2702 31.5458 68.8577 31.7177 68.9717C32.3822 69.3901 32.0135 68.8284 32.331 68.9474C32.6424 69.0729 32.7198 69.5009 32.967 69.5268C33.2501 69.5502 33.4585 69.471 33.6285 69.3803L33.4912 69.4564C33.6714 69.4043 33.8436 69.3245 34.0076 69.273C34.1487 69.2255 33.8102 68.6252 33.8247 68.6036C34.0543 68.3307 34.6065 68.8981 34.2883 67.5666C35.7328 70.7738 34.3437 67.1819 35.0073 67.6808C35.0597 67.7216 35.6968 69.2556 35.6564 69.532C35.6161 69.8082 35.2376 69.3969 35.196 69.8188C35.1868 69.9177 35.4968 71.4637 35.4978 71.564C35.5074 72.3477 34.5953 70.0402 34.5331 69.918C33.8585 68.6007 34.1753 70.2751 34.1547 70.4084C34.1233 70.5676 34.0778 70.6705 34.0264 70.7433L34.4366 70.5159C34.3995 70.7103 34.1811 70.7328 34.2269 71.0659C34.2679 71.3556 35.3452 72.5733 35.2329 72.6091C34.8544 72.7378 33.1024 71.2849 34.2181 72.9618C34.4555 73.3212 35.8164 74.4653 34.5769 73.747C34.5006 73.6995 33.3847 73.0256 33.8872 73.6764C33.9508 73.7582 34.3368 74.1031 34.3534 74.1498C34.4562 74.457 34.078 74.2623 34.1112 74.525C34.1429 74.7896 34.2325 75.1377 33.9673 75.1802C33.8078 75.2067 32.9653 74.7114 32.7442 74.6083C32.1103 74.3073 32.853 75.1615 32.1483 74.7229C31.4353 74.288 30.5963 73.3254 29.9925 73.2223C31.034 74.0734 32.0951 74.9568 33.1402 75.8156C32.7247 76.2583 32.0073 76.4765 31.6827 77.0115C31.6435 77.0787 32.2706 77.4472 32.2441 77.5298C32.1315 77.8741 31.5356 77.8163 31.4932 78.2281C31.4618 78.5497 31.9133 79.238 31.9096 79.5819C30.5438 78.8503 30.7281 79.5054 30.4381 79.6865C30.3367 79.7506 29.9989 79.5164 29.8435 79.5078C29.2652 79.4825 30.477 80.1162 30.6113 80.3011C31.1883 81.0867 28.5933 79.4297 28.4284 79.8277C28.4178 79.8496 29.6598 80.9548 29.7283 81.0381C30.1705 81.5866 29.2246 80.7661 29.0448 80.8246C28.717 80.9313 28.2832 80.8877 28.5331 81.4028C28.607 81.5556 29.3751 82.2631 28.607 82.008C28.5061 81.975 28.0456 81.6882 28.0088 81.6881C27.3805 81.7118 28.8477 82.5802 29.2564 83.0268C29.6662 83.4714 28.5036 83.1386 28.1776 83.0273C27.3358 82.7361 27.9085 82.7403 27.8377 82.6909C26.9944 82.1009 27.0407 82.3777 26.8847 82.4811C25.4108 81.693 25.3823 81.9536 26.7291 82.5918C26.8761 82.6615 26.8016 82.4735 26.8847 82.4811C28.2483 83.4031 28.3223 83.7049 26.84 83.2298C26.1448 83.009 25.4612 82.5075 25.5437 83.0131C25.5823 83.2405 26.6385 83.7022 26.8483 83.9819C27.3289 84.6161 26.1682 84.551 26.1724 84.9503C26.1752 85.0927 26.8003 85.2393 26.8224 85.3446C26.8845 85.6226 26.3748 85.6098 26.5105 85.9131C26.5239 85.9401 27.1508 86.1496 27.1331 86.2141C27.1113 86.3027 27.0767 86.3817 27.0336 86.4544L27.3951 84.2946C27.3581 84.7982 27.0949 85.2792 27.1121 85.8187C27.1223 86.1348 27.5148 86.6854 27.4594 87.0134C27.3671 87.5849 26.4505 88.3349 26.7139 88.7987C26.8827 89.0983 27.5366 88.9892 27.9936 89.0899C28.8791 89.2827 27.3554 89.8368 27.1193 89.9152C27.1114 89.9187 26.9369 89.6669 26.6097 89.8325C25.9124 89.9668 27.116 89.9127 27.1193 89.9152C26.9662 89.9669 26.8584 90.5028 26.9929 90.5906C27.0664 90.641 27.6862 90.5565 27.7127 90.5834C28.3276 91.2097 28.5527 91.8421 28.3416 92.3839C28.3305 92.3946 27.6379 92.4892 27.6206 92.514C27.3547 92.8435 28.2603 92.9206 28.697 92.5941C28.7841 92.5182 28.83 92.4112 28.8228 92.2734C29.2325 92.8763 29.0117 93.2579 28.1657 93.7423C28.4149 94.0633 28.0096 94.622 27.7534 94.9232C27.5001 95.2363 28.8271 94.9368 28.8582 94.9504C29.8488 95.3712 29.17 95.8812 29.2008 96.5047C29.2126 96.8007 29.544 97.2984 29.7636 97.5416C29.9403 97.7385 29.6697 97.9578 29.9233 98.1084C29.9573 98.1288 30.5328 97.9378 30.5576 97.9399C31.3184 97.9686 29.8631 98.2628 29.622 98.3823C28.7458 98.8164 28.2855 99.0709 28.8078 99.2394C28.9283 99.2809 31.0257 98.8502 31.1792 98.9233C31.3762 99.0232 30.6301 99.1985 30.8558 99.297C30.8745 99.3055 31.3225 99.159 31.3328 99.2583C31.3869 99.7179 31.2888 100.266 31.4921 100.655C31.5179 100.708 32.1869 100.366 32.2348 100.436C32.4586 100.762 32.5848 101.119 32.41 101.556C32.365 101.665 31.8743 101.854 31.7426 101.938C30.9531 102.464 32.2421 101.979 32.2724 101.98C32.6907 102.067 32.6642 102.301 32.6336 102.532C32.5982 102.756 32.5755 102.988 32.8449 102.845C32.8982 102.851 33.914 101.794 33.0334 102.691C32.9666 102.744 32.1376 103.726 32.6926 103.045C32.7235 102.999 33.1612 102.502 33.0844 102.527C33.0226 102.562 33.1468 102.11 32.6794 102.682C32.5142 102.854 31.9413 103.997 32.2658 103.026C32.2772 102.992 32.461 102.422 32.5078 102.028C32.5612 101.636 32.479 101.425 32.231 102.185C32.1428 102.434 31.7586 104.074 31.8365 103.208C31.8395 103.038 31.9648 102.677 31.9167 102.431C31.9008 102.356 31.8759 102.312 31.8472 102.285C32.0367 102.212 32.244 102.409 32.5133 101.832C32.5731 101.705 32.8811 100.586 32.9446 101.467C32.9546 101.605 32.8507 102.16 32.9256 102.231C33.2795 102.572 33.7257 102.236 34.0921 102.658C34.2212 102.806 34.0726 103.708 34.2025 103.964C34.3332 104.219 34.6219 104.477 34.8096 104.073C34.9972 103.669 34.9314 102.209 35.1712 102.11C36.2029 101.676 37.1415 102.575 38.1421 102.726C38.2895 102.748 38.1804 102.226 38.3968 102.221C39.203 102.204 40.5298 101.713 41.2265 102.791C41.7977 103.657 41.1334 104.353 41.5684 104.698C41.7829 104.862 41.9283 103.165 41.9702 103.11C42.4018 102.549 42.7606 103.274 43.1506 103.013C43.2291 102.959 43.0925 102.284 43.1585 102.245C43.378 102.108 43.6544 102.388 43.8614 102.309C43.9555 102.272 43.8794 101.754 43.9704 101.784C44.1875 101.85 44.3884 102.045 44.6564 102.501C44.6817 102.543 44.6497 103.204 44.8073 103.206C45.0549 103.207 45.4494 103.631 45.6173 103.089C45.6663 102.926 45.4241 101.757 45.7431 102.532C45.8088 102.694 46.089 104.101 45.9905 102.852C45.9906 102.641 45.8098 100.964 46.1895 101.974C46.2904 102.24 46.7121 103.339 46.7257 103.141C46.7244 103.11 46.4974 102.51 46.5246 102.435C46.6159 102.186 46.7586 102.197 46.6765 102.013C46.6486 101.965 46.3668 101.364 46.3197 101.32C46.2138 101.227 46.0509 101.393 45.834 101.763C45.9223 101.737 46.0127 101.715 46.1016 101.697C46.2554 101.666 46.5475 102.141 46.5943 102.179C47.3612 102.801 46.5571 101.758 46.5447 101.666C46.4795 101.109 47.0717 101.403 47.1729 101.085C47.2021 100.997 46.7309 100.581 46.7043 100.529C46.4484 100.02 47.133 100.921 47.2943 100.939C47.7465 100.994 47.9486 100.725 48.1007 100.458C48.1537 100.361 47.5537 99.9351 47.606 99.8552C47.9102 99.3679 48.3417 99.0041 48.9975 98.8597C49.1225 98.8327 49.5032 99.2473 49.6138 99.3146C50.3931 99.78 49.607 98.8217 49.548 98.711C49.2855 98.1984 49.7202 98.4477 49.7729 98.2353C50.0198 97.2006 50.9342 96.4665 51.5696 95.8067C52.3851 94.962 53.2791 94.3809 53.5894 93.2963C53.6093 93.2279 52.8958 93.006 52.9033 92.9449C53.0252 92.186 53.5439 91.5844 53.5455 90.8001C53.5465 90.7371 52.8447 90.6265 52.8226 90.5217C52.7727 90.3047 52.8708 90.0834 53.1364 89.9449C53.265 89.876 53.8216 90.148 53.9395 90.073C54.2162 89.8942 54.3208 89.6553 54.2588 89.3913C54.2306 89.2798 53.493 89.2893 53.5106 89.1588C53.6126 88.2667 53.5952 87.4335 54.5829 86.5531C54.6505 86.4936 56.118 86.5121 55.8441 86.3488C55.4382 86.3192 54.9601 86.2983 54.5258 86.2741C54.525 86.2672 54.5241 86.2602 54.5233 86.2533C54.376 84.463 54.9485 82.7296 55.0879 80.9513C55.0937 80.8756 54.3129 80.9798 54.32 80.8335C54.3604 79.99 54.1713 79.1653 54.9679 78.3267C55.0458 78.2427 56.4104 78.3323 56.2111 78.0679C56.1748 78.0189 56.0029 77.6421 55.7092 77.5302C55.6648 77.5156 55.0253 77.5681 55.01 77.4445C54.9323 76.7287 55.0957 75.9994 55.5002 75.2935C55.5667 75.1801 56.2433 75.3162 56.2965 75.2358C56.669 74.6667 56.164 74.0296 56.7882 73.4907C57.2083 73.1301 58.3804 73.2817 59.5384 73.0997C59.7018 73.0745 59.73 72.8402 60.4024 72.8417C62.0934 72.8264 63.9439 72.9503 65.7466 72.9219C65.9407 72.9207 65.934 72.8357 65.9957 72.7722C66.0265 72.7464 66.0745 72.7096 66.1732 72.6961C66.2721 72.6866 66.4217 72.7398 66.6559 72.7818C66.7187 72.799 67.0279 73.046 67.3455 73.1022C67.565 73.1468 68.2497 73.0765 68.5304 73.1681C68.8109 73.2481 68.2365 73.3398 68.5657 73.4763C68.8988 73.6252 69.6778 73.5631 69.7659 73.8419ZM26.6037 96.2691C26.0191 96.6283 28.3504 96.0881 27.7405 96.0047C27.7083 96.0014 26.6323 96.251 26.6037 96.2691ZM30.5772 75.3811C29.5773 74.9519 30.7109 76.0271 31.4693 76.375C32.2257 76.7244 30.8787 75.5135 30.5772 75.3811ZM31.6632 72.8045C30.8318 72.4973 33.3979 74.7177 33.0722 74.0418C33.0539 74.0035 31.7112 72.8227 31.6632 72.8045ZM59.8548 74.0189C59.8866 74.0155 59.9201 73.8557 59.8887 73.8478C59.1303 73.7487 59.0637 74.0761 59.8548 74.0189ZM32.8636 70.2911C32.4758 70.0255 32.6515 70.5951 33.1333 70.9221C33.5143 71.1909 33.3379 70.6282 32.8636 70.2911ZM28.0105 106.711C27.9846 106.736 28.0345 106.846 28.1868 106.713C28.6772 106.288 28.4437 106.293 28.0105 106.711ZM36.755 68.3681C36.0469 68.5112 34.6466 66.0472 35.4587 66.0694C35.6071 66.0727 35.5122 67.0086 35.7657 67.1806C36.2327 67.4919 35.7794 65.7785 36.4307 66.5335C36.5503 66.6716 36.7976 68.3659 36.7553 68.3722C36.7552 68.3708 36.7551 68.3695 36.755 68.3681ZM23.8412 97.0708C23.812 97.085 23.8214 97.2489 23.853 97.2457C24.6117 97.1503 24.5923 96.816 23.8412 97.0708ZM33.9839 110.378C33.9886 110.446 34.3715 110.538 34.3896 110.477C34.679 109.253 33.9162 109.064 33.9839 110.378ZM20.5393 86.1275C19.7669 85.9813 19.6665 85.7705 20.6179 85.5775C20.5759 85.7626 20.5771 85.9411 20.5393 86.1275Z" fill="#FFC405"/>
<path d="M35.7712 75.3333C35.1975 75.5348 34.4521 75.2982 33.8909 74.9787C33.717 74.8797 33.8165 74.4579 33.6966 74.3703C33.4594 74.1995 33.2343 74.4015 33.0031 74.1983C32.9266 74.1289 33.0437 73.4603 32.9632 73.4029C32.5248 73.093 32.0969 73.2501 31.6491 73.0907C29.4446 72.3029 27.2779 71.9332 25.0123 71.4225C24.2634 71.2543 23.4112 70.5527 22.5862 70.7161C22.4883 70.7356 22.4694 71.3276 22.4453 71.3735C22.065 72.0745 22.313 70.9063 22.1526 70.7253C21.5111 70.0087 20.729 69.8311 19.9509 69.9076C19.6175 69.9405 19.6972 71.1526 19.5101 70.442C19.4977 70.394 19.7063 69.7982 19.6356 69.7149C19.4641 69.5255 19.0764 69.5502 18.9174 69.458C18.6312 69.2825 18.5878 69.2776 18.2791 69.1795C17.9364 69.0631 17.5621 68.7018 17.096 68.5119C17.0322 68.4868 16.9659 68.4685 16.8962 68.4596C16.7962 68.4481 16.6398 69.0841 16.4505 69.1153C16.2575 69.1455 15.9121 68.9104 15.8645 68.7129C15.8149 68.5154 16.104 68.0975 16.1375 67.9844C16.4332 67.0376 15.4112 68.0121 15.3353 68.0057C14.1352 67.9645 13.8404 66.8304 13.1186 66.3049C12.5644 65.9026 11.8382 65.655 11.3649 65.2203C10.8035 64.7008 10.5533 64.0238 9.97723 63.588C9.91684 63.5412 9.47925 64.1626 9.40377 64.1059C8.60196 63.5024 7.94025 62.7611 7.60629 61.7176C7.57368 61.6129 8.12717 61.228 8.12292 61.0956C8.07986 60.2902 8.38211 58.7324 6.07024 60.491C5.87095 60.1241 5.61857 59.6917 5.79988 59.0371C5.91408 58.613 6.59133 58.279 6.17577 58.2871C6.08279 58.2884 5.6784 58.7811 5.57355 58.7501C5.13291 58.6192 4.98526 58.1585 4.47967 58.0915C4.37611 58.0793 3.97389 58.4786 3.88359 58.5311C3.14234 58.9455 3.93654 57.7904 3.96393 57.6731C4.15619 56.7857 3.68514 56.6982 3.37674 56.3279C3.30381 56.2399 2.82814 56.8489 2.73714 56.782C2.53465 56.6285 2.35391 56.4477 2.2141 56.2489C1.7753 55.703 1.5471 55.1346 1.48246 54.6161C1.4582 54.4052 2.11588 54.2635 2.13645 54.1519C2.24706 53.7065 1.0967 54.1307 1.2027 53.7018C1.22503 53.6136 1.75444 53.4422 1.80589 53.4071C2.62239 52.8767 1.30318 53.2136 1.25561 53.1706C0.647848 52.681 1.9092 51.9307 1.5898 51.475C1.5502 51.419 0.901925 51.7261 0.831595 51.5545C0.358368 50.3934 0.385642 49.1307 0.842277 47.9918C0.912555 47.8145 1.44891 47.8873 1.51261 47.8703C2.50866 47.6097 1.14387 47.6195 1.08811 47.5678C0.684076 47.1604 1.79794 46.6929 0.163203 46.4918C0.623601 44.6356 -0.283919 42.8195 1.22875 41.0855C1.24634 41.0639 1.91481 41.1271 1.94701 41.0843C2.34325 40.5613 1.29831 40.6345 0.0422375 40.2074C-0.273103 40.0994 1.2772 39.9015 1.3912 39.8834C1.81082 39.8173 2.80171 39.9619 2.88364 39.9368C3.52757 39.734 0.232203 39.5915 0.251805 39.2507C0.257933 39.2407 0.861084 39.3217 0.923038 39.2976C1.11749 39.223 0.882006 39.1259 1.09635 39.0512C1.41219 38.9459 2.17808 38.9272 2.45617 38.8394C2.61529 38.7788 2.6164 38.7041 2.29467 38.5447C2.18201 38.4844 0.305501 38.3458 0.46344 37.9147C0.51998 37.7466 0.666783 37.0006 0.850924 36.8494C1.02796 36.6932 1.55856 37.013 1.58827 37.0056C2.49812 36.8042 2.75184 37.0922 3.92006 37.3381C5.073 37.6229 2.46646 36.5908 2.21643 36.3789C1.96799 36.1629 2.70869 36.1318 2.94526 36.1734C3.18362 36.2081 3.48468 36.4623 3.62909 36.4632C4.56614 36.4929 2.48403 35.6487 2.16708 35.2977C1.44053 34.4331 3.38922 35.2343 3.7146 35.1085C3.80618 35.0691 3.37252 34.8666 3.37754 34.7785C3.40673 34.4296 4.03547 34.662 3.75237 34.0408C3.70179 33.9452 2.87612 32.9607 3.71308 33.3787C3.83288 33.4401 4.20083 33.8113 4.3679 33.7852C4.61927 33.7448 4.90954 33.5634 4.89772 33.3054C4.89024 33.1128 4.12518 32.6983 4.44771 32.7244C4.5911 32.7372 4.87965 33.1715 5.11518 33.1711C5.34808 33.1732 5.57623 32.871 5.65768 32.751C5.73886 32.6302 5.19781 32.2657 5.17237 32.2284C5.02925 32.0115 4.97892 31.5947 4.99668 31.5759C5.76852 30.5811 7.33176 30.5079 7.86026 29.4012C7.90285 29.3146 7.35909 28.8967 7.36041 28.8787C7.36312 28.4537 8.5298 29.8674 9.12572 30.1178C8.08484 29.2019 8.35769 29.2763 8.39599 29.0101C8.41288 28.8818 7.97873 28.5611 7.94482 28.5168C7.45054 27.8499 8.30054 28.4809 8.47869 28.6053C8.67022 28.7392 8.75345 28.7725 8.78629 28.7603C8.87067 28.7254 8.66557 28.4192 8.97627 28.6364C9.40794 28.9457 9.85741 29.6022 9.9948 29.4456C9.68506 29.0528 8.63281 28.274 8.61343 27.9937C8.56678 26.8805 10.3446 26.7825 10.8531 26.6183C11.3857 26.4152 11.5049 26.2558 11.8729 26.2692C12.531 26.3113 11.9288 25.534 12.1114 24.9734C12.3102 24.4144 13.0148 26.6853 13.253 27.1372C13.482 27.5935 13.3345 27.0889 13.4869 27.3299C13.6359 27.5722 13.6554 27.935 13.8045 27.9906C13.945 28.048 13.9642 27.085 13.8554 26.5623C13.6114 25.4576 13.0766 24.383 13.5946 24.6599C13.6235 24.677 13.7302 25.2945 13.8307 25.3304C14.6134 25.5992 15.2775 25.4911 15.9695 25.8136C16.0635 25.8592 16.0917 26.5552 16.1459 26.5899C16.7013 26.9581 16.3583 25.8282 16.5062 24.5037C16.6406 26.2261 16.9146 27.2542 17.273 27.2318C17.4929 27.2194 17.3923 26.4717 17.5033 25.9305C17.5381 25.7671 17.7376 26.2724 17.7443 25.9169C17.7727 24.7546 17.5314 23.4677 17.9927 23.9605C18.0125 23.9841 17.9849 24.6205 18.0504 24.6558C18.4698 24.8886 18.4751 23.6756 18.9284 23.5184C19.2544 23.4055 19.8071 24.016 20.1869 24.2134C20.2337 24.2312 20.2784 24.2461 20.321 24.2572C20.2858 26.1957 20.601 25.7647 20.9658 24.4647C21.2703 24.5571 21.6122 24.5472 21.8486 24.7963C21.9269 24.8808 21.7277 25.4101 21.7249 25.472C21.646 26.4342 22.0936 25.2097 22.1747 25.1803C22.9725 24.9036 23.0772 26.0111 24.0116 25.3798C24.0435 25.3564 24.6512 24.1518 24.3809 25.1133C24.3593 25.1783 23.9187 25.6469 24.1506 25.8111C24.3869 25.9774 24.4945 26.8476 25.119 26.4828C25.2682 26.3937 26.0213 25.563 25.7521 26.3962C25.7147 26.5088 25.4964 26.829 25.4178 27.0322C25.1653 27.6788 25.9162 26.5402 25.4331 27.6001C24.9509 28.6606 24.7062 29.5253 25.4277 29.0366C25.4495 29.0229 26.0981 28.1554 26.1853 28.2314C26.3236 28.3531 26.4163 28.6815 26.5773 28.7793C26.6549 28.8259 26.9758 28.2344 26.9957 28.2328C27.7174 28.2597 27.7456 29.0027 28.132 29.5859C28.2012 29.6933 29.0079 29.1409 28.7825 29.8658C28.5361 30.6597 26.4319 33.204 27.3545 32.8943C27.7254 32.7718 30.376 29.531 29.4738 31.5424C30.4509 31.575 30.4422 32.9221 31.5598 32.7568C31.6099 32.7499 32.3609 31.851 32.4227 31.9118C32.5135 32.0043 32.2682 32.4958 32.3247 32.5768C32.3888 32.6752 32.4786 32.7307 32.5802 32.7652C32.8434 32.8344 33.1767 32.7647 33.3849 32.9458C33.4938 33.0396 33.1666 33.5008 33.2972 33.6134C33.4247 33.7238 33.8996 33.1424 33.9133 33.5668C33.9238 33.8905 33.292 35.2788 33.3901 35.5443C34.1697 34.2683 34.2871 34.3746 34.7303 34.1834C34.8165 34.1464 35.0394 33.6725 35.0944 33.6323C35.3243 33.4587 35.1795 33.8764 35.4182 33.6809C35.4756 33.6341 35.7468 33.2013 35.8092 33.1388C36.3553 32.5927 35.982 33.7165 35.9121 33.9094C35.6562 34.6476 36.087 34.1356 36.0409 34.4629C35.9931 34.7894 35.6153 34.9884 35.6488 35.2278C35.7154 35.7212 36.1025 35.8866 36.3525 36.0982C36.4532 36.1794 36.7849 35.5776 36.8087 35.5764C37.1428 35.6066 36.908 36.3429 37.8808 35.3829C36.1287 37.8208 37.6107 35.9719 38.0194 35.8982C38.0231 35.9004 38.032 35.9102 38.0356 35.9126C38.1054 35.9028 38.1402 35.943 38.1127 36.0594C38.0992 36.1255 36.9624 37.3355 36.7214 37.442C36.6613 37.4685 36.6319 37.4591 36.6155 37.4324L36.6715 37.4822C36.6141 37.4004 36.6609 37.1514 36.3938 37.3024C36.3059 37.3456 35.1926 38.4488 35.1198 38.5121C34.5257 38.9839 35.9925 36.9841 36.0629 36.8662C36.8308 35.6035 35.6222 36.7984 35.5075 36.8596C34.9539 37.118 34.9365 36.6859 34.5093 36.8581C34.2322 36.9691 33.3334 38.3235 33.2557 38.2142C32.9922 37.8502 34.0436 35.8345 32.6556 37.2895C32.3599 37.6005 31.5146 39.1648 31.9652 37.8051C31.9941 37.7197 32.4414 36.4978 31.908 37.1212C31.8408 37.1998 31.577 37.6453 31.535 37.6709C31.2568 37.833 31.3796 37.4266 31.1326 37.5108C30.8864 37.5955 30.5624 37.7477 30.4816 37.4983C30.4338 37.3495 30.7803 36.4362 30.8492 36.2035C30.9344 35.9165 30.8529 35.9137 30.757 35.9443C30.7202 35.9144 30.5904 35.8525 30.5556 35.8202C30.4201 35.8489 30.2557 35.935 30.4656 35.5089C30.836 34.7606 31.7074 33.831 31.775 33.2324C31.0166 34.3432 30.2264 35.4754 29.4569 36.5879C28.9519 36.1911 28.693 35.4833 28.1539 35.1789C28.0862 35.1422 27.7359 35.7796 27.6525 35.7554C27.3024 35.6505 27.3541 35.0565 26.9479 35.0213C26.6324 34.9967 25.9485 35.451 25.6098 35.4483C26.3564 34.0916 25.7179 34.2813 25.558 33.9981C25.5013 33.8992 25.7419 33.5659 25.7581 33.4138C25.8137 32.8482 25.1444 34.0395 24.9607 34.1725C24.1788 34.7422 25.9051 32.1929 25.545 32.039C25.5253 32.029 24.4031 33.2505 24.3205 33.3182C23.7758 33.7546 24.6112 32.8253 24.5698 32.6513C24.4955 32.3348 24.57 31.9138 24.0768 32.1659C23.9312 32.2409 23.2193 32.9984 23.5194 32.2519C23.5583 32.1538 23.8585 31.7019 23.8618 31.6664C23.8932 31.0598 22.9822 32.501 22.5487 32.9116C22.1154 33.3223 22.5272 32.1979 22.653 31.8786C22.9863 31.0569 22.9305 31.6072 22.98 31.5368C23.5785 30.7011 23.3287 30.7569 23.2506 30.6113C24.0755 29.1576 23.8426 29.1393 23.1667 30.4668C23.0925 30.6115 23.2643 30.5308 23.2506 30.6113C22.3154 31.9639 22.0626 32.0603 22.6031 30.6097C22.8527 29.9286 23.3387 29.2373 22.8948 29.3496C22.6938 29.4013 22.2197 30.4513 21.971 30.677C21.4167 31.1986 21.5772 30.0918 21.2716 30.152C21.1681 30.177 21.0136 30.7931 20.9394 30.8324C20.7504 30.9421 20.7969 30.4577 20.608 30.6523C20.5923 30.6713 20.4179 31.3074 20.3875 31.3069C20.1703 31.3193 20.1435 30.8987 20.1475 30.8867C20.1486 30.8862 20.15 30.8891 20.1522 30.8945C19.8727 30.9444 19.4717 31.2375 19.2381 31.1753C18.7938 31.058 18.2185 30.122 17.8702 30.3814C17.6486 30.5473 17.7542 31.2012 17.701 31.6566C17.6121 32.5376 17.1598 31.0195 17.0772 30.7869C17.0737 30.779 17.2423 30.6024 17.1021 30.2782C16.9572 29.5852 17.0778 30.7838 17.0772 30.7869C17.0305 30.6342 16.643 30.5378 16.5946 30.675C16.5678 30.7493 16.6914 31.3621 16.6766 31.389C16.3274 32.0152 16.0373 32.2496 15.6151 32.0795C15.6051 32.0695 15.3973 31.4022 15.3753 31.3874C15.0549 31.1663 15.2102 32.0242 15.2855 32.5439C15.3566 33.066 15.2332 32.9381 14.5943 31.9177C14.5619 32.1041 14.1579 31.7248 13.889 31.5142C13.6183 31.3047 14.3555 32.4493 14.3656 32.4747C14.664 33.3125 14.1332 32.7386 13.8466 32.8299C13.7405 32.8598 13.6941 33.073 13.6967 33.2584C13.6694 33.3323 13.6464 33.402 13.6284 33.4636C13.5561 33.7196 13.2253 33.6083 13.2278 33.9063C13.228 33.9463 13.6935 34.3351 13.7045 34.3574C14.0738 35.0261 13.064 33.9368 12.836 33.794C12.0062 33.2752 11.5549 33.0089 11.68 33.5402C11.7077 33.6629 13.1355 35.2593 13.1417 35.4365C13.1454 35.6658 12.6259 35.1018 12.6456 35.3536C12.6468 35.3745 12.9953 35.6921 12.9091 35.7549C12.5109 36.054 11.9562 36.2531 11.672 36.6401C11.6321 36.6915 12.2437 37.1297 12.1959 37.2114C11.9703 37.5956 11.6534 37.9149 11.1427 37.9777C11.015 37.9919 10.6519 37.6102 10.5198 37.5257C9.71623 37.0195 10.6538 38.031 10.6592 38.0658C10.7672 38.9708 9.50541 38.6031 9.78429 39.271C9.79274 39.3233 11.0123 40.1395 9.89446 39.567C9.82298 39.5231 8.65188 38.9877 9.42117 39.4157C9.47066 39.4397 10.0712 39.7182 9.99887 39.7127C9.9223 39.7178 10.3329 39.8822 9.65412 39.6214C9.44414 39.5267 8.21035 39.1744 9.19156 39.4615C9.24985 39.5245 11.5313 39.9246 9.97646 39.5596C9.72003 39.5013 8.0553 39.227 8.9132 39.3386C9.08068 39.3509 9.45146 39.4213 9.68904 39.4137C9.79714 39.4086 9.83509 39.3902 9.85362 39.3687C9.88386 39.5134 9.80357 39.6902 10.3231 39.8773C10.4535 39.9245 11.5867 40.164 10.7114 40.2449C10.5743 40.2586 10.0139 40.1868 9.94701 40.2555C9.62591 40.589 9.98619 40.9633 9.58361 41.306C9.44226 41.4252 8.53416 41.3289 8.28568 41.4537C8.03718 41.58 7.79469 41.8443 8.20753 41.9951C8.62054 42.1449 10.0753 42.0289 10.1869 42.2347C10.6729 43.1187 9.82203 43.9776 9.72197 44.8459C9.70715 44.9737 10.2231 44.8534 10.2389 45.0381C10.297 45.7328 10.8552 46.7958 9.81763 47.4374C8.98659 47.9718 8.25583 47.4857 7.9369 47.8727C7.78623 48.0667 9.48382 48.0338 9.54088 48.0595C10.1233 48.3444 9.42227 48.6941 9.70217 48.9455C9.7601 48.9956 10.4214 48.8113 10.4628 48.8526C10.6094 48.9869 10.3445 49.2063 10.4295 49.32C10.4691 49.3699 10.9738 49.2342 10.9462 49.2895C10.8862 49.4192 10.6967 49.555 10.2555 49.7833C10.216 49.8065 9.57812 49.9457 9.57815 50.0247C9.57609 50.1428 9.18121 50.4527 9.64507 50.2649C9.78373 50.2073 10.8502 49.6683 10.0938 50.0023C9.9317 50.0657 8.70463 50.8064 9.7393 50.1226C9.82069 50.0647 10.1789 49.7944 10.3677 49.5255C10.5634 49.265 10.5586 48.9804 10.1265 49.1685C10.1105 49.1911 10.0927 49.2151 10.0731 49.2406C9.89699 49.4689 9.11366 50.3531 9.33275 50.3213C9.36574 50.3141 9.79922 49.8367 9.91348 49.8705C10.2967 49.9846 10.4909 50.3034 10.871 50.4243C10.974 50.4564 11.3737 49.9088 11.5114 49.9707C11.8909 50.1403 12.0791 50.5976 12.1751 51.0084C12.2083 51.1594 11.7415 51.4641 11.704 51.5118C11.0956 52.2876 12.1253 51.4662 12.217 51.4524C12.7716 51.3762 12.4906 51.9793 12.8121 52.0826C12.9 52.1126 13.3159 51.6407 13.3677 51.6142C13.8803 51.3624 12.9759 52.0429 12.9598 52.2064C12.9087 52.6635 13.1781 52.8728 13.4438 53.0327C13.5426 53.0914 13.9786 52.4974 14.0608 52.5554C14.5543 52.8858 14.9226 53.3573 15.0387 54.0344C15.0596 54.1627 14.6201 54.5147 14.546 54.621C14.0283 55.3655 15.0421 54.6517 15.1585 54.6029C15.6934 54.3833 15.4127 54.7995 15.6235 54.8735C16.6535 55.2247 17.301 56.2492 17.8419 56.9613C18.5366 57.8772 18.9101 58.8253 19.7675 59.2159C19.8202 59.24 20.1731 58.5826 20.2218 58.5942C20.7171 58.7358 21.0132 59.0902 21.3128 59.166C21.2343 59.118 21.2136 59.0883 21.2316 59.0538C21.2389 59.039 21.4708 58.373 21.4852 58.3252C21.5169 58.2231 21.5912 58.2866 21.6456 58.5327C21.6752 58.6522 21.4473 59.2188 21.4857 59.3284C21.5778 59.5855 21.7714 59.6803 21.9951 59.6096C22.0919 59.5782 22.1023 58.8449 22.2148 58.8586C22.9853 58.936 23.9117 58.9388 24.7969 59.9759C24.8576 60.0471 24.7616 61.5114 24.9423 61.2477C24.996 60.8443 25.0453 60.3682 25.0954 59.9362C26.5621 59.854 28.022 60.4689 29.5613 60.6326C29.626 60.6392 29.5565 59.8575 29.6816 59.8665C30.4065 59.9172 31.1183 59.7346 31.8389 60.5352C31.9104 60.6135 31.8177 61.9776 32.0491 61.7794C32.0902 61.7433 32.43 61.5731 32.5245 61.2794C32.5378 61.2351 32.4988 60.5956 32.6065 60.5807C33.2303 60.5049 33.877 60.6686 34.4883 61.0718C34.5879 61.1381 34.4655 61.8149 34.5364 61.868C35.0342 62.2395 35.6016 61.7325 36.0771 62.3547C36.3986 62.7734 36.2589 63.9461 36.4289 65.1034C36.4537 65.2668 36.6591 65.2942 36.6644 65.9666C36.6808 67.6576 36.5668 69.5084 36.5958 71.311C36.6032 71.6993 36.8861 71.2828 36.7145 72.22C36.7032 72.2827 36.4933 72.5926 36.4371 72.9104C36.3985 73.1301 36.4595 73.8145 36.3816 74.0955C36.3021 74.3762 36.2269 73.8023 36.1027 74.132C35.9766 74.4656 36.0242 75.2443 35.7712 75.3333ZM12.6083 30.655C12.0977 30.2245 13.5808 32.1025 13.3141 31.5844C13.2994 31.5572 12.633 30.6765 12.6083 30.655ZM29.7273 34.0026C30.1262 32.9951 29.1017 34.1724 28.7797 34.9414C28.4602 35.711 29.6077 34.309 29.7273 34.0026ZM32.3951 34.8001C32.571 33.9401 30.836 36.8563 31.4324 36.4093C31.4663 36.3841 32.3847 34.85 32.3951 34.8001ZM35.6091 65.4231C35.6114 65.4549 35.7578 65.4879 35.7614 65.4564C35.8492 64.6976 35.5585 64.6322 35.6091 65.4231ZM34.9177 35.3462C35.0914 34.9123 34.5965 35.2269 34.3834 35.7672C34.2096 36.2001 34.6994 35.8841 34.9177 35.3462ZM4.697 35.7402C4.66552 35.723 4.58151 35.7938 4.75257 35.9006C5.30267 36.245 5.22352 36.0307 4.697 35.7402ZM38.0238 37.8239C37.7361 37.3057 39.4725 35.0665 39.7536 35.8361C39.7989 35.971 38.9021 36.2286 38.8278 36.522C38.682 37.0454 40.1302 36.0283 39.6169 36.8729C39.522 37.0264 38.0353 37.8569 38.0202 37.8256C38.0214 37.825 38.0226 37.8245 38.0238 37.8239ZM10.772 28.4424C10.7496 28.4194 10.6146 28.489 10.6317 28.5158C11.0534 29.1514 11.3057 29.0271 10.772 28.4424ZM1.86956 41.5142C1.80174 41.5195 1.72938 41.8684 1.79141 41.8823C3.02852 42.0913 3.17796 41.3994 1.86956 41.5142ZM20.3277 24.3091C20.5712 23.5498 20.918 23.4894 20.965 24.4636C20.7621 24.3871 20.5486 24.3623 20.3277 24.3091Z" fill="#FFC405"/>
<path d="M31.0688 39.2836C30.6037 38.5221 30.6468 37.7413 30.821 37.1414C30.8754 36.9542 31.3077 36.9423 31.365 36.8123C31.4773 36.5607 31.2311 36.4069 31.3789 36.1556C31.4304 36.0742 32.1054 36.0199 32.1446 35.9384C32.3539 35.4891 32.1161 35.167 32.1844 34.7577C32.493 32.9539 32.5167 31.3178 32.588 29.6012C32.5964 29.4132 32.6054 29.223 32.6158 29.0335C32.6486 28.4048 33.1861 27.6064 32.8713 26.9952C32.8339 26.9237 32.2495 27.0135 32.1999 27.0031C31.441 26.8363 32.6335 26.8199 32.7805 26.6638C33.361 26.0448 33.3779 25.4158 33.1253 24.8748C33.0163 24.6447 31.8568 24.9327 32.5031 24.6653C32.5468 24.647 33.1748 24.6799 33.2388 24.6127C33.3826 24.4611 33.2604 24.1898 33.3063 24.0748C33.3979 23.8544 33.3906 23.8189 33.3921 23.613C33.3999 23.3311 33.7047 22.9922 33.5596 22.6934C33.5268 22.6292 32.8858 22.7219 32.7756 22.6191C32.6654 22.5161 32.7183 22.2397 32.8696 22.1468C33.0209 22.0538 33.5254 22.0931 33.641 22.0767C34.6167 21.9453 33.2666 21.6289 33.2337 21.5855C32.6707 20.8329 33.4584 20.2055 33.4881 19.5123C33.5092 18.9833 33.2912 18.3976 33.3663 17.8909C33.4586 17.2871 33.8545 16.8099 33.8628 16.2186C33.8645 16.1559 33.1064 16.1413 33.1072 16.0635C33.1162 15.2373 33.3186 14.4226 33.9649 13.7039C34.0304 13.6322 34.6639 13.8529 34.7681 13.7895C34.9221 13.6935 35.1253 13.5904 35.3025 13.4787C35.8597 13.0458 36.1877 12.657 34.213 11.7076C34.4532 11.3277 34.7561 10.8757 35.4342 10.7839C35.8695 10.7285 36.4358 11.226 36.2677 10.8557C36.2314 10.7718 35.6253 10.5747 35.616 10.4657C35.5813 10.0002 35.9675 9.71463 35.8852 9.21285C35.8676 9.10929 35.3703 8.83767 35.2948 8.76501C34.6938 8.15898 36.0335 8.597 36.1495 8.60208C37.0523 8.57423 37.0162 8.12883 37.3175 7.76766C37.3874 7.68522 36.7079 7.31931 36.7559 7.22067C37.0144 6.71376 37.4458 6.31525 38.049 6.16425C38.1842 6.13228 38.5848 6.65267 38.6727 6.66106C39.0498 6.69916 38.2049 5.8121 38.5578 5.83021C38.6306 5.83369 39.0055 6.24353 39.055 6.28013C39.8262 6.86062 38.9505 5.82102 38.9568 5.77287C38.9957 5.16286 40.1674 6.0057 40.3324 5.58975C40.3526 5.53785 39.8017 5.08817 39.8888 4.97292C40.4697 4.1996 41.3848 3.7285 42.4389 3.66642C42.602 3.65619 42.827 4.14342 42.8721 4.1911C43.572 4.93964 42.8589 3.77771 42.8684 3.70855C42.9536 3.19897 43.8556 3.96867 43.1662 2.48228C44.0418 2.27991 44.6786 1.73304 45.4293 1.37991C46.3601 0.912999 47.3503 0.841987 48.2036 1.35948C48.2271 1.37269 48.2989 2.04009 48.3434 2.06396C48.8686 2.36658 48.6207 1.35153 48.8579 0.0465064C48.9289 -0.281921 49.3073 1.23288 49.3278 1.34512C49.4311 1.75497 49.4136 2.75519 49.4437 2.83394C49.6686 3.45409 49.4684 0.160966 49.7866 0.14874C49.7961 0.153944 49.7754 0.761882 49.8024 0.82142C49.8852 1.00843 49.9549 0.765487 50.0336 0.973038C50.2154 1.45378 50.2713 3.05526 50.5107 2.12348C50.5424 2.00284 50.5033 0.130946 50.7632 0.222697C50.8667 0.260162 51.3136 0.239913 51.4297 0.366148C51.5469 0.491587 51.4409 1.09093 51.4488 1.11734C51.7374 1.92621 51.6019 2.25173 51.7052 3.43731C51.8043 4.6186 51.8899 1.81558 51.9687 1.5059C52.048 1.19711 52.2444 1.86517 52.2879 2.09631C52.332 2.32753 52.2437 2.70664 52.2865 2.83837C52.3647 3.07553 52.4157 3.07712 52.4517 2.94573C52.4678 2.94327 52.5034 2.96224 52.5184 2.96881C52.7864 2.73013 53.4531 1.65352 53.7196 1.44806C54.6236 0.802791 53.5484 2.60754 53.5879 2.91063C53.6042 2.99741 53.8709 2.60186 53.9484 2.61057C54.2546 2.65486 53.9161 3.22526 54.5322 2.99679C54.6296 2.95602 55.6981 2.25811 55.1426 3.00739C55.0606 3.11333 54.6438 3.42637 54.6296 3.581C54.6073 3.8117 54.7013 4.0877 54.9379 4.09953C55.1145 4.10999 55.6758 3.45072 55.5754 3.74397C55.5283 3.87258 55.0643 4.09558 55.0049 4.30746C54.9451 4.51767 55.1565 4.74964 55.2422 4.83542C55.3288 4.92052 55.8067 4.47873 55.8472 4.45993C56.0843 4.35829 56.4804 4.37011 56.4933 4.38998C57.2161 5.26213 56.7602 6.65134 57.5237 7.37068C57.5836 7.42959 58.172 7.07869 58.1874 7.08454C58.5682 7.21016 56.8427 7.81605 56.3739 8.24214C57.6108 7.61638 57.4325 7.8227 57.6505 7.93027C57.7566 7.98215 58.2225 7.71124 58.2758 7.6956C59.0761 7.48357 58.1581 8.00974 57.9711 8.11896C57.2846 8.5242 58.1794 8.23307 57.7193 8.50277C57.2611 8.76707 56.494 8.95701 56.5708 9.10893C57.046 8.95802 58.1835 8.32114 58.4314 8.36561C59.3821 8.55276 58.7896 9.86659 58.8149 10.2851C58.847 10.7111 58.9743 10.8153 58.8738 11.0973C58.6894 11.6082 59.5644 11.178 60.0654 11.3257C60.5662 11.4794 58.2484 11.9815 57.7688 12.1558C57.2883 12.3264 57.8037 12.2259 57.5458 12.3427C57.2876 12.4584 56.9291 12.4587 56.8544 12.5842C56.7794 12.7065 57.7258 12.7514 58.2515 12.6614C59.3643 12.4649 60.4785 12.0417 60.1477 12.4359C60.1278 12.4584 59.5101 12.5524 59.4645 12.6307C59.1213 13.2462 59.2021 13.765 58.8792 14.3392C58.8336 14.4172 58.1418 14.4853 58.1074 14.5314C57.7901 14.9494 58.611 14.7318 59.7062 14.6782C59.7175 14.707 59.7152 14.8004 59.7228 14.8303C59.8775 14.8411 60.0372 14.8556 60.1992 14.8759C58.4728 14.9052 57.4238 15.0737 57.4272 15.3858C57.4284 15.5697 58.1801 15.5062 58.7161 15.606C58.8777 15.6375 58.366 15.7896 58.7211 15.7986C59.8822 15.8304 61.1732 15.6496 60.6702 15.9978C60.6463 16.0132 60.0107 15.9925 59.9743 16.0439C59.7353 16.3643 60.9483 16.366 61.1075 16.6974C61.2327 16.9656 60.5108 17.4699 60.4004 17.7754C58.4609 17.8323 58.9144 18.1076 60.2551 18.1796C60.2066 18.3779 60.2888 18.5932 60.1095 18.7873C60.0484 18.8548 59.4856 18.8282 59.4252 18.8382C58.4771 18.9929 59.7806 19.042 59.8329 19.084C60.3418 19.5296 59.3656 19.9335 60.3403 20.3517C60.3754 20.3664 61.7235 20.3586 60.7425 20.5005C60.6749 20.5097 60.0583 20.3789 60.0159 20.5875C59.9734 20.7999 59.2599 21.2008 59.8905 21.48C60.0423 21.5453 61.14 21.6981 60.2881 21.8579C60.1724 21.8792 59.7855 21.8663 59.571 21.8979C58.8875 21.9997 60.2506 22.0218 59.0954 22.1481C57.9403 22.2731 57.0778 22.5003 57.8814 22.7778C57.9048 22.7872 58.9856 22.8351 58.9701 22.9263C58.9445 23.0713 58.723 23.282 58.7325 23.4354C58.7374 23.5075 59.4071 23.4506 59.4196 23.4629C59.8029 23.9444 59.2102 24.3023 58.9574 24.8316C58.9097 24.927 59.8272 25.1919 59.1064 25.3875C58.3173 25.6016 55.0237 25.426 55.8125 25.8824C56.128 26.0662 60.3062 26.2707 58.1452 26.6274C58.6863 27.2841 57.5821 27.8957 58.3494 28.5548C58.3834 28.5842 59.5492 28.675 59.5335 28.7451C59.5079 28.8491 58.9633 28.9072 58.9275 28.9816C58.7639 29.2952 59.2301 29.5744 59.1573 29.8766C59.1309 29.9911 58.5677 29.9506 58.536 30.0854C58.5049 30.2201 59.2465 30.3116 58.8878 30.4949C58.6144 30.6335 57.098 30.7683 56.9206 30.9495C58.416 30.9618 58.3848 31.0873 58.7786 31.3142C58.855 31.3578 59.3756 31.3137 59.4386 31.3345C59.7065 31.4192 59.2748 31.4951 59.5664 31.5754C59.6364 31.5949 60.1471 31.5984 60.2332 31.6146C60.9846 31.752 59.8345 31.9663 59.6342 32.0027C58.8737 32.143 59.5374 32.2154 59.2375 32.3251C58.9376 32.4338 58.565 32.2659 58.3825 32.3934C58.0052 32.6569 58.0847 33.0039 58.0586 33.275C58.0513 33.3832 58.7337 33.316 58.7485 33.3317C58.9192 33.5578 58.1916 33.7775 59.548 33.9183C56.0354 34.0345 59.8871 34.0573 59.1803 34.3711C59.1231 34.3958 57.4625 34.4067 57.22 34.3069C56.9777 34.2071 57.4984 34.0672 57.12 33.9286C57.0312 33.8954 55.4775 33.6957 55.3835 33.6702C54.6491 33.4685 57.1303 33.4668 57.2667 33.4577C58.7385 33.3554 57.0646 33.1175 56.9493 33.0572C56.4211 32.7833 56.7718 32.559 56.3946 32.3334C56.1509 32.1845 54.5258 32.1591 54.5763 32.0448C54.7431 31.6657 57.011 31.5445 55.0467 31.1748C54.6278 31.0961 52.8512 31.1654 54.249 30.8962C54.3371 30.8795 55.6155 30.6793 54.8076 30.5578C54.7057 30.5427 54.188 30.5418 54.1446 30.5221C53.8636 30.3901 54.2762 30.3036 54.0789 30.1609C53.8816 30.0189 53.5873 29.8465 53.7629 29.6834C53.8679 29.5852 54.8324 29.4591 55.0686 29.412C55.7488 29.279 54.6333 29.1377 55.4569 29.0535C56.2847 28.9686 57.5422 29.1308 58.0768 28.9097C56.7318 28.9039 55.3513 28.8877 53.9986 28.8773C54.0451 28.4027 54.4783 27.9311 54.4162 27.4518C54.4071 27.3924 53.6844 27.4572 53.6561 27.3938C53.5397 27.127 54.0536 26.8902 53.8461 26.6128C53.6828 26.3993 52.9152 26.171 52.7202 25.9477C54.2579 25.7958 53.7321 25.4683 53.8699 25.2232C53.9175 25.1377 54.3286 25.1386 54.462 25.0768C54.9552 24.8437 53.5965 24.9667 53.3818 24.9073C52.465 24.6508 55.5429 24.5867 55.4625 24.2717C55.4593 24.2554 53.8156 24.0734 53.713 24.0465C53.0441 23.8766 54.2836 24.0083 54.4032 23.894C54.6216 23.6851 55.0113 23.5402 54.5267 23.3046C54.3832 23.2363 53.3578 23.0861 54.1464 22.9376C54.2496 22.9181 54.7921 22.9183 54.8236 22.9035C55.3483 22.6324 53.6442 22.6553 53.0643 22.5182C52.4846 22.3814 53.6564 22.1304 53.9944 22.0755C54.8689 21.9347 54.3711 22.1624 54.4572 22.1676C55.483 22.2263 55.3033 22.0596 55.3872 21.9291C57.0575 21.8764 56.9535 21.6982 55.4675 21.7942C55.3052 21.8049 55.463 21.9016 55.3872 21.9291C53.7457 21.8481 53.5319 21.6629 55.0588 21.4077C55.7744 21.2897 56.6136 21.3668 56.3004 21.064C56.159 20.9271 55.01 21.0085 54.6934 20.8905C53.9713 20.6225 55.0352 20.2295 54.8584 19.9419C54.7943 19.8385 54.1674 19.9573 54.1018 19.8875C53.9259 19.7005 54.3936 19.5154 54.1462 19.3323C54.123 19.3158 53.4652 19.3764 53.4551 19.3177C53.3656 18.863 53.7758 18.4611 53.7719 17.9854C53.7699 17.7591 53.3924 17.3627 53.4569 17.1241C53.5651 16.7161 54.503 16.1673 54.2558 15.8323C54.0972 15.6081 53.4405 15.6879 52.9875 15.611C52.3436 15.5059 53.0019 15.2562 53.4933 15.1167L53.561 15.7386C53.7326 15.67 53.8834 15.6149 53.9451 15.5935C53.9491 15.5922 54.0015 15.6305 54.0966 15.6462L54.0362 15.0917C54.1196 15.1194 54.2396 15.1314 54.3976 15.0759C54.4009 15.0755 54.4041 15.0751 54.4073 15.0747L54.4626 15.583C55.1278 15.4128 53.9483 15.5944 53.9451 15.5935C54.0949 15.5413 54.1807 15.1788 54.0435 15.1366C53.9689 15.1135 53.3595 15.2529 53.3322 15.2391C52.699 14.9135 52.4541 14.546 52.6313 14.0574C52.6416 14.0468 53.3217 13.8858 53.3374 13.8626C53.5733 13.5317 52.7033 13.592 52.1606 13.54C51.6182 13.489 51.7384 13.301 52.8472 12.8268C52.6573 12.7244 53.0921 12.3481 53.3534 12.1179C53.614 11.8853 52.3232 12.3162 52.2944 12.3151C51.3706 12.2837 52.0372 11.8439 52.0167 11.4682C52.0096 11.2896 51.6987 11.0653 51.4918 10.9715C51.327 10.8987 51.5796 10.6868 51.342 10.663C51.3103 10.6599 50.772 10.9382 50.7488 10.9438C50.0401 11.1433 51.398 10.5499 51.6228 10.4076C52.4388 9.88808 52.8614 9.58666 52.3703 9.62269C52.2556 9.62657 50.3167 10.5212 50.1782 10.5277C49.9978 10.5274 50.6831 10.1875 50.4756 10.1954C50.4585 10.1959 50.0478 10.4273 50.0392 10.3698C49.993 10.1046 50.0823 9.72512 49.9023 9.54138C49.8798 9.51621 49.2821 9.96749 49.2408 9.94012C49.0482 9.81323 48.9497 9.63286 49.1091 9.27251C49.1497 9.18182 49.5745 8.87449 49.6889 8.76874C50.3732 8.11885 49.2591 8.91774 49.2345 8.9293C48.8797 9.01977 48.9094 8.84006 48.9354 8.64935C48.9662 8.46341 48.9825 8.26088 48.7359 8.44084C48.6919 8.45016 47.8005 9.61265 48.5358 8.59396C48.5363 8.59324 48.5368 8.59242 48.5375 8.59148L52.1042 9.82622C52.0983 9.7185 52.0327 8.46382 51.8799 9.32713C51.8706 9.38173 51.9148 10.0466 51.7834 9.97256C51.6512 9.89864 51.4254 10.3304 51.289 9.59701C51.2474 9.36603 51.1638 8.07907 50.9782 9.09611C50.9584 9.16671 50.6896 11.4718 50.6525 9.87642C50.6466 9.61388 50.6813 7.92587 50.507 8.78958C50.4758 8.95715 50.526 9.33388 50.4485 9.56855C50.3354 9.93026 50.1829 9.47979 50.0948 10.2348C50.0749 10.3686 50.0571 11.5154 49.9679 10.6496C49.9524 10.5141 49.9382 9.95054 49.9051 9.88925C49.7404 9.59584 49.6744 9.98243 49.5662 9.60511C49.5247 9.47304 49.3901 8.57192 49.3134 8.33749C49.2385 8.10251 49.1116 7.88976 49.1945 8.29852C49.288 8.70435 49.6445 10.1121 49.7124 10.2139C49.865 10.4156 50.0754 10.2826 50.2645 10.0119C49.8931 10.032 49.4629 9.96591 49.1385 10.0859C49.049 10.1189 49.3861 10.5214 49.2756 10.6011C48.8592 10.9005 48.4647 11.7537 47.4846 11.1071C46.6847 10.5982 46.6389 9.7955 46.2043 9.66934C45.9891 9.61543 46.8986 11.0446 46.9096 11.1032C47.0109 11.7061 46.3936 11.243 46.341 11.585C46.3315 11.6549 46.8091 12.1473 46.7975 12.2C46.764 12.3829 46.4513 12.2496 46.3865 12.3818C46.359 12.442 46.7158 12.8239 46.6493 12.8295C46.4939 12.8479 46.2652 12.7603 45.8353 12.4935C45.7954 12.4699 45.4068 11.9424 45.3165 11.9951C45.1745 12.0792 44.6825 11.8871 44.9149 12.366C44.9851 12.5099 45.8536 13.3288 45.1788 12.8432C45.0384 12.7415 44.0019 11.7497 44.8266 12.6839C44.9562 12.8469 46.0866 14.0899 45.2139 13.4545C44.9836 13.2876 44.0392 12.5874 44.141 12.7541C44.1589 12.7787 44.6739 13.1621 44.6928 13.2378C44.7527 13.4952 44.6005 13.5814 44.6776 13.8185C44.7003 13.8811 45.271 14.2239 45.2906 14.3009C45.3473 14.5105 45.1271 14.5397 44.889 14.5346C44.8003 14.5318 44.3405 14.2292 44.2876 14.2011C43.4151 13.7652 44.5373 14.45 44.5985 14.4975C44.9539 14.8025 44.3767 14.5771 44.4871 14.7258C44.5173 14.7638 45.0922 15.0129 45.1411 15.0401C45.6236 15.2972 44.6109 14.8068 44.4868 14.7804C44.1342 14.7086 44.1448 14.818 44.1991 14.9062C44.2201 14.9384 44.9145 15.1524 44.9272 15.1734C44.9973 15.2678 44.9713 15.2935 44.7699 15.2965C44.6951 15.3749 44.6052 15.4506 44.4986 15.5233C44.4099 15.5828 43.8679 15.4377 43.7394 15.4304C42.8398 15.3829 44.0128 15.7544 44.1217 15.8076C44.6171 16.0589 44.1191 16.041 44.1873 16.2022C44.5297 16.9801 44.1023 17.8239 43.8422 18.518C43.5068 19.4135 42.9388 20.1331 43.0559 21.0558C43.0627 21.1141 43.8077 21.0713 43.8232 21.1211C43.9897 21.7603 43.6995 22.3942 43.9275 23.0396C43.9449 23.0922 44.6484 23.0017 44.7001 23.0847C44.811 23.2545 44.7786 23.4729 44.5593 23.6554C44.4537 23.7447 43.845 23.6494 43.7511 23.7399C43.5313 23.9516 43.4899 24.1742 43.6126 24.3797C43.6664 24.4666 44.3806 24.2991 44.3943 24.4136C44.5033 25.1947 44.6794 25.9411 43.8216 26.8283C43.7627 26.8887 42.3073 27.0723 42.5985 27.1664C43.0044 27.1371 43.4808 27.0916 43.9141 27.0545C44.0348 27.4551 44.068 27.8613 44.0649 28.2726C44.058 29.0198 43.9317 29.8068 43.9984 30.5741C44.0029 30.6239 44.7575 30.4205 44.77 30.5155C44.8439 31.0659 45.1437 31.5518 44.485 32.2393C44.4207 32.3071 43.0715 32.5269 43.3056 32.6544C43.348 32.6765 43.5739 32.8885 43.8772 32.8934C43.9228 32.893 44.5404 32.7281 44.5735 32.8006C44.7555 33.226 44.7076 33.7026 44.4216 34.1827C44.3743 34.2605 43.6977 34.3517 43.6585 34.4093C43.3857 34.8204 43.9783 35.0217 43.4231 35.2968C43.0412 35.4619 41.9319 35.8492 40.8774 36.324C40.7362 36.4067 40.6924 36.3765 40.0998 36.6954C38.6577 37.5817 36.951 38.32 35.4039 39.2477C35.2456 39.3598 35.3416 39.5377 35.4892 39.8571C35.6289 40.1519 35.6851 40.4407 34.9327 40.2135C34.9084 40.206 34.8227 40.1375 34.7168 40.0496C34.6152 39.9685 34.5093 39.8959 34.3954 39.8183C34.1616 39.6506 33.9595 39.5839 33.7813 39.5782C33.5386 39.5755 32.995 40.0345 32.6469 39.9457C32.3104 39.8796 32.7637 39.4717 32.381 39.3904C31.9909 39.2962 31.2839 39.6389 31.0688 39.2836ZM54.5 11.0524C55.0643 10.6972 52.8226 11.5341 53.4044 11.4543C53.4351 11.4494 54.4724 11.0699 54.5 11.0524ZM56.2828 27.9251C57.3373 27.727 55.7848 27.6026 54.9704 27.7425C54.1569 27.8815 55.9631 27.9852 56.2828 27.9251ZM57.0567 29.9369C57.889 29.7089 54.496 29.6723 55.1817 29.9155C55.2205 29.9297 57.0084 29.9502 57.0567 29.9369ZM40.4344 36.0402C40.4041 36.0503 40.4034 36.1543 40.4342 36.1467C41.1735 35.9658 41.1804 35.7781 40.4344 36.0402ZM57.8885 31.9396C58.3479 31.8713 57.8192 31.6642 57.248 31.749C56.7885 31.8169 57.317 32.0244 57.8885 31.9396ZM52.8308 3.8C52.8525 3.77148 52.8093 3.69249 52.6807 3.84784C52.2664 4.34735 52.4657 4.27698 52.8308 3.8ZM57.8912 35.3444C58.0265 34.8442 60.833 34.5766 60.5091 35.1222C60.4504 35.221 59.6185 34.8948 59.364 35.0178C58.9003 35.2422 60.6576 35.4235 59.7109 35.6468C59.5377 35.6867 57.8773 35.3725 57.8873 35.3434C57.8886 35.3438 57.8899 35.3441 57.8912 35.3444ZM57.1611 9.96376C57.1897 9.94974 57.1752 9.8277 57.1448 9.8364C56.4137 10.0511 56.4395 10.2893 57.1611 9.96376ZM47.945 2.07293C47.9253 2.00645 47.5867 2.02022 47.5911 2.08508C47.7605 3.32086 48.3313 3.32176 47.945 2.07293ZM60.3489 17.7819C61.117 17.8889 61.212 18.0458 60.2561 18.1789C60.303 18.0489 60.3062 17.9152 60.3489 17.7819Z" fill="#FFC405"/>
</svg>
